<svg id="Layer_1" data-name="Layer 1" xmlns="http://www.w3.org/2000/svg" viewBox="0 0 250.3 142.6"><defs><style>.cls-1{opacity:0.36;}.cls-2{fill:#fff;}</style></defs><title>map</title><g class="cls-1"><path class="cls-2" d="M74.5,4.1h.2c0,.1-.2.2-.2.3s0,.2.1.2.3-.3.3-.4.1-.1.3-.3-.2-.2-.3-.2h0c.1-.1,0-.2-.2-.1s-.4.2-.4.3S74.4,4.1,74.5,4.1Zm.6,6.6c-.1.1-.1,0-.1.2v.2c0,.1.1.3.2.3s.3-.1.3-.2l.2-.2v-.2h-.5ZM73.4,6.9a1.5,1.5,0,0,0-.5,1.4,1.6,1.6,0,0,0,.9-.3C73.9,7.9,73.6,6.8,73.4,6.9ZM67.5,9.3h-.4C67.2,9.5,67.4,9.4,67.5,9.3ZM69,6.8c0,.1.1.1.2.1h1c.1,0,.1,0,0,.1s-.1.1-.1.2h.3l.2.3h.2a.8.8,0,0,1-.1.4l-.3.4.2.3c.1.1.1,0,.2,0h.4l.3-.3c.1-.1,0-.1,0-.2l.2-.4c.1-.1,0,0,0-.1s.1-.3.3-.4V7.1h.2c.1-.1,0-.2.1-.2V6.3h-.2c.1,0,0,0,0-.1s-.1-.1-.1-.2V5.4c0-.1,0,0-.1-.1h-.8c-.1,0,0-.1,0-.1l.2-.2c.1-.1,0-.1,0-.2s.1-.1.1-.3-.1-.1-.2-.3h-.9c0-.1,0-.2-.1-.2s-.2.3-.3.3l-.2.3h0c0,.1.1.2.2.1h.2a.2.2,0,0,1-.2.2l-.3.3h.2l.4-.3c.2,0,.1.1.1.2s0,.1,0,.1l-.3.2c0,.1,0,.2.1.1s.2.1.2.1H70c-.1,0,0,.1.1.1l-.2.3c-.2.1-.2,0-.2-.1s0,0-.1-.1a.2.2,0,0,1-.2-.2h-.3c0,.1-.2.1-.2.2v.2S69.1,6.7,69,6.8Zm.7,1.8h.2a.2.2,0,0,0,.1-.3.4.4,0,0,0-.3-.4c-.1,0-.5,0-.5.2s0,.2.2.3Zm10.2-.4h.3L80,7.9a.1.1,0,0,0-.2,0c-.2,0-.3.1-.3.2h.4Zm-4.3.3c.4.6,1.2.8,1.5,1a29.7,29.7,0,0,0,3.5-2.7l-.7-.4C79.2,6,81,.7,77.8,3.1h-.1c0-.1-.2-.1-.1,0h.1l-.6.5.6.8a3.9,3.9,0,0,0-1.5.6c-.1.3.4.4.4.5s-.4,0-.7.3a4.4,4.4,0,0,1,.8,1.1c-.1.1-1.1.6-1.1.8s.3.3.4.5-.5,0-.5.1h.1ZM69.7,7.3l.2-.2h0c-.1,0-.3,0-.3.1Zm-.4,3.3h-.1a.1.1,0,0,1,.1.1h0Zm-1.1.1h.7c0-.1.1-.1,0-.1H68C68,10.7,68.1,10.8,68.2,10.7Zm-.9.5c-.1.1-.2.2-.1.2h.1v.2c-.1,0-.1.1,0,.2s0,.1-.1.2,0,.1,0,.1v.3h-.2c0-.1.1-.1,0-.2h-.2a.2.2,0,0,0-.2.2h1c-.1.1,0,.1-.2.1H67c-.1,0,0,.1-.1.1h-.1a.1.1,0,0,0,0,.2H67c-.1-.1,0-.1-.1-.1h-.1s-.1.2,0,.3h1.3V14c0-.1.1-.2.2-.1v.3s.1.1.1,0V14h0l.2-.2h.2v.2l.2-.3a.1.1,0,0,0-.1-.1h.2l.3-.4.3-.2c.1-.1,0-.1,0-.2v-.2s.2-.1.2-.2.1-.2,0-.2h-.2v-.4c-.1,0,0,.2-.1.2h-.3v.2h-.3c0-.2.1-.2.1-.3s.1-.2,0-.2h-.9c-.1.1-.2,0-.2.2s0,.3.1.3v.2c0,.1.1.2,0,.1h-.3l.2.2V12h-.1c-.1.1-.1,0-.1.2h0c0,.1-.1.2-.2.1h-.1v-.6h-.1v-.2l-.2-.2ZM78,9.3c0-.1.1-.1,0-.1h-.1a.1.1,0,0,0-.1.1h-.1Zm-5.7.4a.4.4,0,0,0,.1.3h.3s.1.2.2.2h1l.2-.2h.2a.2.2,0,0,0-.2-.2h-.4a.3.3,0,0,0-.1-.2H72.5Zm6.5,1.7h-.1a.1.1,0,0,0-.1.1h.2Zm-9.4,2h0Zm5.3-1.3h-.3v.4s-.1.2,0,.3h.2v-.6ZM70.3,7.6h0Zm4.1.9h-.1v.2c.1,0,.1,0,.1-.1S74.5,8.5,74.4,8.5Zm.5,2.8a.1.1,0,0,1-.1-.1c-.1,0-.1.2,0,.2S74.9,11.4,74.9,11.3ZM69,14.8h.2c0,.1-.2.1,0,.2h.4v.2h.8v-.2h.2V15c0-.1.1,0,.1-.2v-.5c0-.1-.1-.1-.1-.2l-.2-.3H70c-.1,0-.2,0-.1.1s.1.1,0,.1h-.4c.1.1.1.1,0,.1h-.2c-.1,0-.2,0-.3.2Zm.8-1.6h-.2c0,.1-.1.1,0,.1Zm-.3.6h.1c-.1,0-.1.1-.1.2Zm11,1.2.2-.2c.1-.1,0-.1,0-.1l-.5.3-.2.2c.1.1.1,0,.2,0v.2c.1-.1.1-.2,0-.2Zm-9.6-2.2H71A.1.1,0,0,0,70.9,12.8Zm-.2.4c0,.1.1.1,0,.2h.1l.2-.3h-.3Zm.1-1.8h0Zm-1.7,4s-.1,0,0,.1,0,.2.1.1.1-.1,0-.1Zm1.8-4.9c0,.1,0,.2.1.2h-.1Zm6.2,9.8h-.2v.4h.1c0,.1.2.1.3.1s.1.1.2,0h1.8c-.1-.1-.1,0-.1-.1s.1-.2,0-.2h0v-.3h-.2c0-.2.1-.2.1-.3h-.3v-.2H77.5c0-.1-.2-.2-.2-.1s0,.2-.1.2-.1.1-.1.2h0l-.2.2c-.1.1-.1.2,0,.2s.2,0,.2.1.1.1,0,.2Zm2.3-5.6h-.1c-.1,0-.2,0-.1.1S79.4,14.8,79.4,14.7Zm-7.6,2.6c0-.1-.1-.1-.1,0H72S71.8,17.2,71.8,17.3Zm-.7-6.1H71v.3h.2c.1,0,.1.1.1.2h.1a.1.1,0,0,0-.1.1l.2.3H72c.1.1.1.2.2.2h.5a.4.4,0,0,0-.1.3v.2c0,.1-.1.2,0,.3h.1a.5.5,0,0,1-.1.3l-.2.2h-.2v.2h-.2v.2c-.1,0-.2,0-.2.1s0,.1.1.2v.2c-.1,0-.2,0-.2.1h0c-.1.1-.1.1,0,.2l.2.2h.4v-.2h.1c0,.1,0,.1-.1.1h-.2s-.1.1.1.2l.2.2h.5c.1-.1.1,0,.1-.1h.3c.1,0,0-.1.1-.1h.1c.1.1,0,.1,0,.2h-.2v.2s-.1.1,0,.1l.3.2h.4s.2-.1.2,0-.1,0,0,.1h.2c.1,0,.1,0,0-.1v-.2h.2v.2c0,.1,0,.1.1.1v-.2c.1,0,.2-.1.2,0h-.1a.2.2,0,0,0,.3.1v-.2h.1c0,.1-.1.1-.1.2h.2c0-.1,0-.2.1-.2h0c.1.1,0,.2.1.3h.9a.1.1,0,0,1,.1-.1c.1-.1.1-.1.1-.2h.1a.3.3,0,0,0-.1.2c0,.1,0,.3.2.3H77a.1.1,0,0,0,.1.1.1.1,0,0,1,.1.1h1.1a.1.1,0,0,0,.1-.1h0a.1.1,0,0,1,.1-.1c.1-.1.1-.1,0-.1h0s-.1-.2,0-.2.1.1.1.2a.1.1,0,0,1,.1.1H79s.1.1.1-.1-.1-.1-.1-.2h-.1c-.1,0-.2.1-.2,0h.2v-.2a.1.1,0,0,1,.1.1c.1,0,.2,0,.2-.1s-.1-.2,0-.2.1-.1,0-.1h-.1s.1-.2-.1-.2h-.3l-.3-.3h-.8l-.2-.2c-.1-.1-.1-.2-.2-.2H75.7c-.1,0-.2-.1-.1.1v.2s.1.1,0,.1h-.6c0-.1.2-.1.1-.2h-.1c0-.1,0-.2-.1-.2s-.1,0-.1.1h-.2a.1.1,0,0,0-.1-.1h-.3c.1-.1.1-.2,0-.2l-.2.2h0c-.1,0-.1.1-.2,0s-.1-.1,0-.3v-.2h-.1c0-.1.1-.1,0-.1h-.6a.1.1,0,0,1-.1.1s-.1-.1,0-.1v-.2h.4c.1-.1,0-.2-.1-.2h-.1a.3.3,0,0,0-.1-.2h-.1s.1-.2.2,0,.1.2.2.2h.8c.1,0,.2,0,.1-.1s.1-.1-.1-.2-.3,0-.4-.2H74a.3.3,0,0,0-.1-.2h-.2c0-.1,0-.2.1-.1h.3s.2.1.2-.1l-.2-.3H72.7c0,.1-.2.1-.2.2h-.1v-.2l.5-.3c0-.1.1-.1,0-.1v-.6h-.2c-.2,0-.3,0-.3-.1s.2-.1.1-.2h-.8a.1.1,0,0,0-.1.1h-.3c-.1.1-.2.2-.1.3s.2.2.1.2ZM27.2,39.6c0,.1.1-.1.1-.2l.3-.4.2-.3c0-.2-.1,0-.2,0s0-.1-.1-.3,0,.1-.1.1,0-.1-.1,0-.1.1,0,.1,0,.1-.1.2a.3.3,0,0,1,.1.2c0,.2-.1.1-.2.1s-.1.3-.1.4.1-.2.1-.2S27.1,39.4,27.2,39.6Zm1.2-1.2h-.5c-.2.1-.1.1-.1.2s.1.1.1.2-.1.1-.1.3-.2.3,0,.3H28c.1,0,.2-.1.1-.2s.1-.3.2-.2.1.1.1,0S28.5,38.4,28.4,38.4Zm-1.5.2c-.1.1-.3,0-.3.2s.1.1.1.2,0,.1.1.2a1,1,0,0,1,.1-.4c.1-.2.2-.3.2-.5a1.6,1.6,0,0,0,.1-.4.3.3,0,0,0-.1-.2h-.3c.1.1.1.1.1.2v.2h0c-.1.1-.1.2,0,.2h.1C26.9,38.6,27,38.6,26.9,38.6Zm1.7,1.2h-.1c-.1.1-.1.1-.1.2S28.6,39.9,28.6,39.8Zm-.2-.5h-.3c-.1.1.1.2.1.2S28.3,39.4,28.4,39.3ZM28,36.6c0-.1,0-.3-.1-.2s-.1.3-.2.5-.3.3-.1.4.2.2.2.3l-.2.2c-.2.1-.3.2-.2.3s.4-.3.5-.4.1.1.1-.1,0-.7.1-.6,0,.6.1.5a.9.9,0,0,0,0-.7C28.2,36.7,28,36.7,28,36.6Zm.4,2.5c.1,0,.2,0,.2-.1a.2.2,0,0,0-.1-.3C28.3,39,28.2,39.2,28.4,39.1Zm58,78.7-.5.6-.3.5A7.6,7.6,0,0,1,86.4,117.8Zm-58.3-77c-.1-.1-.2,0-.1-.1s.1-.1,0-.2-.1-.1,0-.2h.2c-.1-.1-.2,0-.1-.1s.1-.2,0-.3-.4,0-.3-.2a.8.8,0,0,0,.1-.3c-.2,0-.4.1-.3.3s.1.2,0,.4-.1.1-.1.2h.2c0,.1-.1.1-.2.2s-.2.2-.1.2.4.1.4.2-.2,0-.2.2.1.1.1.3.2.2.2.1,0-.2,0-.3.1,0,.1-.1S28.2,40.9,28.1,40.8ZM78,141.2l-1.1-.5c-.2,0-.2-.1-.4-.3s-.4-.3-.6-.4-.4-.1-.2-.2.5,0,.3-.2-.3-.5-.5-.5h0c-.1.1-.1.2-.2.1s-.4,0-.4.1.1.2-.1.3h-.4l.2.2v.4h.2c.1,0,.5-.3.6-.1s.2.2,0,.3-.6.1-.5.3l.4.2.6.2.3.2h.1l-.6-.2-.5-.2-.5.3h-.4c-.2.1-.2.2.1.3h.4s-.4.3-.2.4.5.3.5.1-.1-.2-.1-.3.1-.2.4-.2h1.6a2,2,0,0,1,1.1.2c.3,0,.3-.2.4-.2l.3-.2C78.6,141.3,78.5,141.5,78,141.2ZM47.6,73.6h0Zm-19.1-34h0c-.1,0-.3.1-.2.2ZM72.4,140.3l-.6-.2-.7-.4c-.1.3.1.3.2.4l.6.2h.5Zm4.9,1.5H75.7c-.2,0-.1.1-.1.2s-.5,0-.2.1.5.4.6.3-.1-.3,0-.3h.7c-.1-.2-.2-.3-.4-.3s-.3-.2-.1-.2h1.2l.2-.2Zm-4.1-1.1-.7-.2H72l.6.4a.7.7,0,0,1,.4.3c.1.1.1-.1.3-.3S73.3,140.8,73.2,140.7ZM28.5,40.6h.4c0,.1-.1.2-.1.3s.1.1.2-.1.2-.3.2-.4,0-.1,0-.2S29,40,29,40s-.3.1-.4.3S28.5,40.5,28.5,40.6Zm32.9-29H61v-.4l.2-.2c0-.1.1-.1,0-.1h-.4c0-.1.1-.1.2-.1H61v-.3c-.1-.2-.2-.2-.1-.2V9.9l-.2-.2h-.5s-.2,0-.1-.1V8.9h-.7c-.1,0-.3,0-.3.2l.2.2h.1c0,.1,0,.2-.2.1l-.2-.2h-.5c-.2,0-.3.1-.3.2s-.1.2.2.2h.6c-.2.1-.5-.1-.6-.1h-.8c-.1.2-.4.3-.2.4h.9c.1.1.1.1,0,.2h-.4c-.1.1-.1.2-.3.1h-.9c-.1.2,0,.2,0,.3h-.2q0,.2.3.3v.2s.1-.2.2-.1h0c.1,0,.1-.1.1.1l.2.2h.2c0-.1-.1-.1,0-.1h.1V12h1.1c.1,0,.2,0,0,.1h-.2c0,.1-.1.2.1.2h1.7a.1.1,0,0,0-.1.1s.1.1,0,.1H57.8a1,1,0,0,1,.1.3.8.8,0,0,0,.1.4h1.9c.2,0,.3,0,.3-.1l.3-.2h.7l.4-.2c.1,0,.2-.1.2,0s-.2.1,0,.2h.3c.1-.1.2-.2.3-.1v.2h1.4v-.2H64v-.4s.2,0,.2-.1.5-.3.4-.6a.4.4,0,0,0-.1-.3s-.1-.3-.3-.3l-.3.4v.2h-.3c-.1,0-.3,0-.1-.1s.2-.3.1-.4,0-.1-.1-.1l-.3.2-.4.2a.3.3,0,0,1,.2-.4c.3-.1.4-.2.4-.3s.1-.1,0-.1h-.4v-.2h.3a.4.4,0,0,0,.1-.3V9.6h.2V9.2h-.3l-.4.3h-.5c0,.1-.1.2,0,.4s.1.2.1.3.1.2,0,.2,0,.1-.1.1h-.5a.4.4,0,0,0,.1.3.1.1,0,0,1,.1.1v.2h-.1c0,.1,0,.3-.1.2h-.7Zm-.6-3.5h.4c.1.1.2,0,.2-.1h.1a.1.1,0,0,0-.1-.1h-.6ZM62,7.6h-.1c-.1.1-.1.1-.1.2Zm.5-1.3a.3.3,0,0,0,.4,0c.1,0,.2,0,.1-.1V5.8h-.2s-.1-.1-.1,0h-.1c-.1,0-.1.1-.1.2ZM28.8,39.5h-.1c0,.1-.1.3,0,.3S28.8,39.6,28.8,39.5ZM55,8.5c-.1,0-.3.1-.1.1h.3c.1-.1.1-.2.3-.1v.2c0,.1.2.2.3.2V8.7l.2-.3h.2c.1.1.2.1.1.2s-.3.1-.3.2h.1l-.2.3h.3s.1.1.3-.1l.3-.2h0c0-.1.2-.2.2-.2s-.1-.2,0-.2h.2c0,.1-.1.1-.1.3s0,.2.1.2l.2-.2h0l.2-.2h.2c0-.1-.1-.1-.1-.2V7.9h.2l.3-.3c0-.1,0-.1.2-.2h.3c.1-.1.1-.1.1.1s0,.2-.1.2l-.2.3h-.1c0,.1-.1.1-.2.2l-.2.2c0,.1-.1.1,0,.2h.6V8.7l.3-.3h.8c.1-.2.2-.3.2-.4V7.6c.1-.1.1,0,.2.1s.2.1.2-.1-.3-.1-.2-.3l.3-.2H61V6.9c.1-.1,0-.2,0-.3V6.2c-.1,0,0-.1-.1,0h-.2c-.1.1-.2,0-.1.2s.1.3,0,.2h-.2V6.5a.3.3,0,0,0-.1.2c-.1,0-.1,0-.1-.1s-.1-.3-.2-.3H59a.3.3,0,0,1-.1.2h-.4l-.9.5h-.8l-.3.2h-.6c-.1,0-.2-.1-.3,0s0,.2-.1.2h-.4c-.1.1,0,.1,0,.1h.1c-.1,0-.2,0-.1.1s.1,0,0,.1Zm7.9-1.8c0,.1,0,.2-.1.2h0v.2h.4c0,.1,0,.1.2.1h.8c.1,0,.2,0,.2-.1h.2c.1-.1.2-.2.2-.3h-.1c-.1,0-.2,0-.1-.1l.3-.2H64a.1.1,0,0,1-.1-.1h-.6l-.2.2C63.1,6.7,63,6.7,62.9,6.7Zm1.5-1.4h.5a.1.1,0,0,1,.1.1h0c0,.1,0,.2.1.2h.1c0-.1.1-.3.1-.2s.2.1.2.2a.1.1,0,0,0,0,.2h1V5.7c0-.1.1,0,.1-.1h-.1V5.3c.1-.1.2-.2.1-.2h0c-.1-.1,0-.2-.1-.2H64.2C64.2,5.3,64.2,5.4,64.4,5.3ZM26.6,36.8c0,.2,0,.2.1.3v.3c-.1,0-.1.1,0,.1s.2,0,.2-.1v-.3c0-.1,0-.2.1.1s.3.5.3.3v-.2s.2.1,0-.1-.1-.1-.2-.3-.2-.3-.1-.2l.3.2c.1.1.1,0,.2,0a.1.1,0,0,1,.1-.1c0-.1-.1-.2-.2-.1h-.2v-.2c0-.1-.2-.1-.2-.1s-.3.1-.3.1a.1.1,0,0,0-.1.1c.1.2.2.2.1.2ZM66.3,10.3c-.1.1,0,.2,0,.3h-.1c-.1.1,0,.2.1.2h.5c.1,0,0-.1,0-.2h0c-.1-.1,0-.1,0-.1s0-.1-.1-.1,0-.1,0-.1h-.1C66.5,10.2,66.3,10.2,66.3,10.3ZM27.6,42.4c-.2-.1-.4.6-.6.5h-.1c0-.2.3-.3.4-.4h.1l-.7-.2-.2.2q-.2.5,0,.6c0,.1.1.1.1.2h0c0,.1-.1.1-.1.2s.1.1.2.3h-.2c-.1.1,0,.1.1.1h.1a2,2,0,0,1,.1.5c.1.3.3.4.5.3s-.1-.1-.2-.2-.1-.5-.1-.7.3-.2.2-.4-.3.1-.4.1.2-.2.4-.2,0-.1,0-.3l.5-.5C27.8,42.4,27.8,42.4,27.6,42.4Zm27.3-34h0c.1-.1,0-.1,0-.1h0Zm-6.8,9.3c2.3-.7,4.5-3.2,6.5-4.5-1.2-1.2-3.1-.8-4.5.1a9.7,9.7,0,0,0-1.8,2.9C47.9,17.1,47.7,17.8,48.1,17.7ZM37.4,19.5c.1.1.1-.5.1-.7h-.1l-.2.4C37.2,19.4,37.3,19.5,37.4,19.5Zm.3-.2c.3.2,1.3-.4,1.3-.6s-.2-.3-.3-.3-.1.1-.3.3h-.3C37.8,18.8,37.4,19.2,37.7,19.3ZM67.5,9c.1-.2,0-.2,0-.3a.8.8,0,0,1,.1-.4c.1-.2,0-.4-.2-.6v.2c-.1.1,0,.3-.1.4l-.2.2v.2a.4.4,0,0,0,0,.5C67.1,9.3,67.4,9.1,67.5,9Zm50.6-1.9c.1,0,.2-.2.1-.4s-.1-.2-.1-.2a.4.4,0,0,0-.1.3C118,6.9,117.9,7.2,118.1,7.1ZM104.9,3h0c0-.1-.2-.1-.1,0S104.8,3.1,104.9,3Zm-1.5,1.1c0,.1.1.1.2.1s.1,0,.1-.1-.1-.3-.3-.4-.2,0-.1.1Zm.7-1.2a.1.1,0,0,1,.1.1h.2c0-.1-.1-.1-.2-.1a.1.1,0,0,0-.1-.1H104C103.9,2.8,104,2.9,104.1,2.9Zm-.5,2.6c0,.2.2.3.3.2s.2-.2.1-.2h-.2V5.2C103.7,5.2,103.5,5.2,103.6,5.5ZM105.1,3h.2s.1.1.1,0,.1,0,.1-.1V2.8h-.1a.2.2,0,0,0-.2-.2h-.1a.3.3,0,0,0,.1.2h-.3C105,2.9,105.1,2.9,105.1,3Zm12.4,4.5c.1.1.2.3.2.1s0-.3,0-.3A.2.2,0,0,0,117.5,7.5Zm-.2-.3.2-.3V6.7a.2.2,0,0,0-.2.2C117.2,7,117.3,7.2,117.3,7.2Zm-9.1-5.1h.1l-.3-.2h0a.1.1,0,0,0-.1-.1v.2c0,.1.1.2.2.3Zm.4-.4c0-.1.1-.2,0-.2s-.1-.1-.1,0S108.6,1.8,108.6,1.7Zm-1.2.5h.1S107.3,2.2,107.4,2.2ZM86.1,52.7a.4.4,0,0,0-.5-.1h-.9c-.2,0-.8-.2-.4-.3l.5-.3h-.5c-.1-.1-.2.1-.5.3s-.2-.1.2-.7.8-.5.8-.7-.3-.2-.1-.3.2.1.3,0a.3.3,0,0,0,.1-.2h-.4a3.7,3.7,0,0,0-1.4,1,13,13,0,0,1-.6,1.2c-.2.2-.2.6-.6.9s-1.1.5-.7.6a7.3,7.3,0,0,0,2.5.1c.2-.1.1.1.5.1s.5-.1.5,0-.9.5-.8.7.2,0,.6-.3.6-.2.6-.5.4-.3.3.1-.3.5-.3.6.1.2.2,0,.4-.4.4-.2-.2.4-.1.5.2,0,.3,0a.5.5,0,0,0,.3-.3c0-.1.4-.5.2-.6s-.3.1-.4.1-.2-.2-.1-.3.4-.4.2-.3-.4.5-.5.4-.1-.3,0-.4l.2-.3c.2-.1.4-.3.3-.3s-.3.2-.5.1-.2-.1-.1-.2Zm0-39.5h-.5c0,.1,0,.2.1.2H86C86.1,13.2,86.2,13.2,86.1,13.2ZM86,9.9c-.1,0-.2.1-.1.1H86ZM82.5,33.4A3,3,0,0,0,84.8,32a27.3,27.3,0,0,1-3.3-3.5c.6-.4,1-1.4,1.5-1.7s-1.1-.1-1.4-.1-.9-1.4-.3-1.9A3,3,0,0,1,78.9,23c.1-.4.3-.5.5-.9a3.8,3.8,0,0,0-1.5-.5V22c-.7-.1-.6-.2-1.2.2s-.3-.6-.6-.6.5-1.6.7-2.4-1.1-.1-1.7.4-.5-.3-.9-.2.3.3.3.5l-.8-.3c0,.3.4.5.5.7l-.6-.4-.4.8c0,.3.5.1.6.2s-.5.4-.6.5l-.2-.3c0,.2-.3.3-.5.3a9.2,9.2,0,0,1-.1,1.8c0-1.1-.2-4.7,1.5-5-1.7.3-4.2,2-4.6,3.8a.3.3,0,0,0,.2.4h1v.2l.2.2H70c-.1-.1,0-.1-.1-.2h-.4s-.2-.2-.2,0,.1.1.1.2-.1,0-.1.1-.1.1,0,.4v.3s.3.1.3.2.1.1,0,.1-.1-.1-.1,0a.2.2,0,0,0,.3.1h.3c.1.1.2.1.2,0s-.1-.1,0-.1.1-.1.1,0v.2l.2-.2h.2c.1-.1.1-.1.2,0h-.1c-.1,0-.2,0-.2.1h-.1c.1.1.1,0,.1.1a.1.1,0,0,1,.1.1v.2H72l-.3.2c-.1.1-.2.1,0,.2h1.1l.3.2c.1,0,.3.2.3.1s.2,0,.2-.1h-.1l.6.5c.4-.6.8-.1,1.6-.2l-.3-1,.5-.2c.3,1,.9,2.1,1.3,3.2s1.4.9.7,3.1-1.3,1-1.7,2.1a3.1,3.1,0,0,0-3.2.6c1.5.8,2.5.8,3.9,1.7s1.4,2.5,3.5,2.5c-.5-.6-.9-1.6-1.4-2.2.9.9,1.7.7,2.6,1a5.8,5.8,0,0,0-1.5-4.1c.3-.2.6.2.9.3s-.1-.6,0-.6a2.4,2.4,0,0,1,1.6.5C82.6,32.8,82.5,33.1,82.5,33.4Zm-4.1.7c-.1.1-.2.3-.3.1s.1-.3,0-.3h-.8c-.2.1-.4.2-.4.1h.2c.2-.1.3-.1.3-.2s-.1-.1,0-.1h.2c.1-.1,0-.1,0-.2s.2-.1.1-.2-.1-.1-.1-.2a.3.3,0,0,1,.1-.2l.5.5c.1.2,0,.1.1.3A.6.6,0,0,0,78.4,34.1ZM92,6.6c.1,0,0,0,.1.1s.2,0,.2-.1H92ZM100.8,5c.1,0,.2.3.2.3s.2-.2.1-.3l-.2-.2a.6.6,0,0,1,.1-.4V4a.5.5,0,0,1-.1-.3h0c-.1.1-.2.1-.2.3v.4c-.1.1,0,.2.1.3ZM75.5,12.4c-.2.1-.4.5-.6.6l.6-.5C75.6,12.5,75.6,12.4,75.5,12.4Zm25.9-8c0-.1-.1-.1-.1-.2s.1-.2,0-.1-.1.2,0,.2ZM81,8.6a4.2,4.2,0,0,0-2.6,1.2l1.4-.2c-.4.5-.5,1.2-.8,1.6l1.4-.3a1.8,1.8,0,0,1-3.1-.5,1.5,1.5,0,0,1,.2,1.1,4.2,4.2,0,0,0-2,1c0,.3-.2.7,0,.7s.2-.2.4-.3,0,.3.1.5.2-.4.4-.4.2.4.8,1,0-.6.1-.7.7.2,1.1-.1.2.3.3.5a2.3,2.3,0,0,0,2.9-.2,3.8,3.8,0,0,1-1.2-1.7c1.3.2,3.4.3,3.6-.9s.8.1,1.1-.2-.3-.2-.3-.4l.9-.5c-.2.1-.4-.7-.6-1.1l1.2.7s.2-.6.1-.6l-1.6-.5s.6-.1.5-.2l.6.4L85.6,8a9.5,9.5,0,0,0,1.8.4l-.6-.9a3.7,3.7,0,0,0,1.7.5c.9-1.2,4.2-2.8,5.6-3.1a26.4,26.4,0,0,1-2.9.2,10.4,10.4,0,0,0,2.2-.6l-.8-.2c.1,0,.3-.2.2-.3l1.3.4s-.2-.2,0-.2,3-.1,3.1-1.3,0-.5-.3-.6h0c-.5,0-.6.2-.2-.6s-1.5-.4-2.4-.3L95.6.7c-1.4.6-4.2-.5-5.6-.6s-6.1,0-8.5,1.3c.2.3.5.3.9.5s-.5.1-.6.5a5.9,5.9,0,0,0,2,.7H81c.8,0,1.5.7,2.5.4a4.7,4.7,0,0,0-1.2.7l2.3.3-.6.3c.7-.5,2-.1,2.7.2C84.9,4.1,80.5,6.4,81,8.6ZM214.6,5.9c.9.1,1.6-.2,1.6-.5s-.1-.7-.6-.6a5.6,5.6,0,0,0-1,.2c-.2-.1-.2-.2-.5-.2l-.5.2c-.1,0-.1-.3-.5-.2A2,2,0,0,0,214.6,5.9ZM185.6,7h.8V6.8h-.8Zm8.8,6.8h.4c.5.2.4.3.5.2l.2-.3c-.1-.2-.2-.2-.2-.4s.1-.1,0-.2l-.2-.2-.5.2c-.2,0-.4.1-.3.2S194.5,13.7,194.4,13.8Zm-13-7.7c.1.2.1.3.2.4s.2.1.1.2-.3.2-.2.4a1,1,0,0,0,.1.3c.1.1.1.5.3.8s.2.5.3.5a2.4,2.4,0,0,0,.6-.8.5.5,0,0,1,.4-.3h.5c.1-.1.4-.3.5-.5s.4-.3.2-.4-.2-.4-.3-.5a.8.8,0,0,0-.4-.3.5.5,0,0,1-.5-.1h-.4l-.2-.2h-.1c-.1,0-.4-.3-.4-.2s.1.2.1.3.1,0,0,.1-.1.2-.2.1,0-.3,0-.4V5.1c-.3-.1-.9-.2-.8,0s.4.3.3.4-.3-.2-.3,0-.3.1-.1.3S181.4,5.9,181.4,6.1Zm3.8.8h.3c.1-.1-.1-.1,0-.2a.1.1,0,0,0,.1-.1h0c-.2,0-.2.1-.3.2Zm21.9-.2c.4.3.2.3.1.6s.3.3.7.4.5.5,1,.6.9.2,1.1-.2-.4-.6-.2-.6.3.3.5.3.3-.6.4-.8.3.1.4.2.7-.1.9-.3-.3-.1-.5-.2h-.7l-.6-.5a1.8,1.8,0,0,1-.3-1.1c0-.2-.1-.2-.5-.2l-.9-.2s.4.2.4.3h-.2c-.2.1.2.2.3.5s-.1.3-.2.2-.3-.2-.8-.3-.3-.3-.7-.5-.5.2-.5.5-.2.2-.2.5S206.8,6.3,207.1,6.7ZM73.3,35l-.3-.2c-.1,0-.3,0-.2.2s.3.1.3.2,0,.2.2.1a.2.2,0,0,0,.2-.2Zm139-24.1c.4-.1,0-.5,1-.5h1.4s.4,0,0-.3a1.5,1.5,0,0,0-.7-.5c-.3-.2-.3-.4-.8-.3s-.4-.2-.6.2.1.6,0,.9S211.9,10.9,212.3,10.9Zm-.9-1.8c.3.6.7.6.7.2a.9.9,0,0,0-.2-.6C211.6,8.5,211,8.5,211.4,9.1ZM210.5,6c0,.4.7.5.9.5a1,1,0,0,0,.7-.2c.2-.1.2-.4,0-.6s.2-.4.1-.6h-.9c-.5-.1-.7-.4-1.3-.2s.3.3.4.5S210.4,5.7,210.5,6Zm-35.7-.9c-.3.7.6,1,.8,1s.2-.1.4-.5S175.7,5.1,174.8,5.1ZM159.6,29.4c.2-.2-.5-.5-1.1-.5a.9.9,0,0,0,.2,1.2C158.8,30.3,159.5,29.7,159.6,29.4Zm4.9-2.3c-.1,0-.1,0,.1.2l.4.4h.2c0-.1.1-.1.2,0s.1.1.1.2a.2.2,0,0,0,.2.2h.2a.2.2,0,0,0,.2-.2c0-.1,0-.2-.2-.3l-.4-.2h-.1l-.3-.3h-.3c-.2,0-.3.2-.2.2s.1.1.1.2A.1.1,0,0,0,164.5,27.1Zm-21.8.5h.3a.1.1,0,0,0,.2,0h-.1c0-.1.1-.1,0-.1a.1.1,0,0,0-.1-.1c-.1.1,0,.1-.1.1h-.2ZM122.8,46.3c.1.1.1-.2.2-.2s.1.1,0,.2-.1.2-.1.3a.8.8,0,0,0-.1.4v.3c-.1.1-.1.3,0,.3a.8.8,0,0,0,.2-.4v-.4c.1,0,0,.2.1.2h.2a.3.3,0,0,1,.1-.2.6.6,0,0,1-.1.4c0,.1,0,.2.1.2v.2s-.3.5-.2.6h.3c.2,0,0-.1.2-.1h.7c.1,0-.2.1-.2.3s.1.5.3.5h.3v.2c-.1.1-.3.2-.2.3s.3.3.2.3-.2-.1-.3,0h-.4c-.2,0-.5.2-.5.3l.3.4c0,.1,0,.1-.1.3l-.6.3c-.2.1-.1.3,0,.4l.5-.2h.2c-.1.1,0,.1.1.1h.8c.1-.1.3-.2.3-.1s-.3.1-.3.3,0,.1-.1.2h-.5a.6.6,0,0,0-.6.2c-.2.2-.2.3-.2.4l-.6.3c-.1.1.1.3.3.2s.5-.4.6-.3.3.2.5.1,0-.2.2-.4a.8.8,0,0,1,.6-.2h2.3c.2,0,.4,0,.5-.2l.2-.3c0-.1,0-.1-.3-.1s-.3,0-.2-.1l.5-.6c.1-.2.3-.3.2-.5a.4.4,0,0,0-.4-.4c-.2-.1-.4-.2-.5-.1a.2.2,0,0,1-.2.2c-.1,0-.2,0-.2-.1s.2-.1.2-.3a1,1,0,0,0-.1-.3h-.4c-.1,0-.3-.1-.1-.1h.3s.1.1,0-.2,0-.2-.3-.4l-.4-.3h-.2c0-.1,0-.4-.1-.5h-.2s-.1-.5-.3-.6l-.3-.3h-.2c-.2,0-.3.1-.5,0s-.6,0-.3-.1h.7a.1.1,0,0,0-.1-.1c-.1,0-.3,0-.2-.1h.4l.3-.4a.4.4,0,0,1,.2-.4c.1-.1.2-.2.1-.3H125c-.3,0-.5.1-.6,0h-.7c.2-.1.3-.2.2-.3h-.1l.5-.5c.2-.1.2,0,.2-.2s.1-.2,0-.2h-.8c-.1.1-.2-.1-.4,0s-.2.2-.2.3v.2c0,.1,0,.2.1.2s0,.1-.1.1-.2-.1-.3,0-.1.1-.1.2.1.1.1.2-.1.1,0,.1.1.1.1.2h-.2a.4.4,0,0,1-.1.3A.2.2,0,0,0,122.8,46.3ZM176.1,4.6c.8-.2.7-.5.6-1.3s-1.1-.8-2-1.4-.6,1.3-.4,2.2S175.3,4.8,176.1,4.6ZM120.8,48.1s-.3,0-.2.1h.4a.3.3,0,0,1-.1.2h-.4c-.1,0-.1.1-.3,0h-.5c-.1.1-.1.1,0,.2s.2.2.1.3-.2.2-.2.3,0,.1.1.2h.3c.1,0,.2-.1.2,0s.1.1-.1.2-.2.2-.2.3-.1.2.1.1.5,0,.3.1h-.4c-.2.1-.3.1-.3.2s0,.2-.1.2-.4-.1-.3,0h.4s-.4.1-.4.2.1.1.2.1.2-.1.2,0h-.2c.1.1.3-.1.3,0h.1c-.1.1,0,.1.3.1s.4,0,.4-.1a.3.3,0,0,0,.1-.2s.2-.1.2,0,0,.1.1.1l.3-.3c0-.1.1-.1.3-.1h.6c0-.1.1-.1.1-.2s0-.1.1-.2.1-.2.1-.4v-.3a1,1,0,0,0-.1-.4v-.2c-.1-.1-.2-.1-.1-.1h0l.5-.2a.1.1,0,0,0,.1-.1,1,1,0,0,0-.1-.4c-.1-.2-.2-.2-.2-.3l-.3-.2h-.7l.3-.2c.1-.1-.1-.1-.1-.1s-.1,0-.4,0-.5.1-.5.3Zm41.5-21.3c1.3.6,1.1,0,1.3-.2s-.1-.2-1-.9-1.4-1.6-.8-3.9,3.6-4.9,4.5-5.6.1-1.4-.6-1.6-.9.7-1.3,1.1a5,5,0,0,1-2.2,1,2.9,2.9,0,0,0-1.7,2.5c-.1.8-.7,2.1-.8,3.3s0,1-.2,1.5a2.5,2.5,0,0,0-.4,1.5C159.2,26.4,161,26.3,162.3,26.8ZM176.2,5.1c.3.2.5.1.4.4s-.7.6-.2.7.6-.1.8.2.2.4.6.4h.8l1,.3c.6,0,1-.2,1-.5s-.1-.4-.4-.6-.5-.2-.3-.4,0-.5-.4-1a1.4,1.4,0,0,0-.9-.6c-.2,0-.4,0-.3.3s.4.4.1.6-.3.2-.3-.3.1-.4-.1-.5-.4-.2-.6-.2.1.3-.5.7S175.9,5,176.2,5.1ZM170,21.2c0,.1-.2.3,0,.3h.3c.2.1.3,0,.4-.1s.2,0,.2-.1l-.3-.2c-.1-.2,0-.4-.3-.4s-.1.1-.2.2h-.4ZM61.2,17.3h.1c0-.1,0-.1.1-.1h.2c.1,0,.1-.2.2-.2H62l.3-.2c0-.1.1-.1.2-.2s-.1,0,0-.1v-.2c-.1,0-.1,0-.1-.1s0-.1,0-.2-.2,0-.4,0,0,0-.1-.1h-.7l-.4.3c-.1.1,0,.1.1.2v.7c.1.1.1.1.1.2S61.1,17.3,61.2,17.3Zm14,12.3c0,.2.4.3.9.1a.9.9,0,0,0,.6-.6c.1-.3.3-.3.2-.5l-.4-.2a1.2,1.2,0,0,0-.7.2C75.5,28.9,75.1,29.3,75.2,29.6ZM63.8,24.5h0c0-.1-.1-.2-.1-.1v.2C63.8,24.6,63.8,24.6,63.8,24.5Zm5.3-10.8c0,.1,0,.2.1.2h.1c.1,0,.2-.1.1-.1h-.3Zm-4.6-.4h.4V13c.1-.1,0-.3,0-.3h-.2l-.2.2-.2.2s-.2,0-.1.1Zm-4.1,2.4h-.1c-.1,0-.2.1-.1.2S60.3,15.6,60.4,15.7ZM55.5,9.2h0Zm4.3,14.2h0c0,.1,0,.1.1,0ZM56.4,10.2c.1,0,0,.1.1.1l.2-.2h.2l.3-.3.5-.2c.1-.2.2-.2.3-.3h-.1c-.4.1-.4,0-.7.2l-.8.3-.3.4Zm9.5,1.5c0,.1.1.1.3.2h.6c0-.1-.1-.1-.2-.1h-.7ZM59,24.9h-.1c0,.1-.1,0-.1,0s-.1.1,0,.1H59c.1,0,.1,0,.1-.1Zm7.6-6.4a.2.2,0,0,0-.2.2h.2c0-.1.1-.1.1-.2Zm1.1-3.2h.2a.1.1,0,0,0-.1-.1c-.1,0-.2,0-.2.1h.1Zm-.8,2.5h0Zm2-3.9h-.1c-.1,0-.1.1,0,.1Zm-2.4,2.3h-.2c0,.1.1,0,.1,0h.9s.1,0,0-.1h-.8Zm-.7-4c0,.1.1,0,.2,0s.1,0,.1.1h.2v-.2h-.6Zm.9-.6q.3-.2.3-.3c0-.1-.1-.1-.2-.1H66c-.1.1-.1.2.1.3Zm0,1.3h0Zm-.1,5.2h0c-.1,0-.1.1,0,.2h0Zm-4.8,4.2.2-.2h-.1c0-.1-.1-.2-.1-.1v.2A.1.1,0,0,1,61.8,22.3Zm12.7,6.1.2-.3h-.1C74.4,28.2,74.5,28.3,74.5,28.4Zm.2-2.6h-.2c-.2,0-.3.1-.2.2a.3.3,0,0,0,.5.1C74.9,25.9,74.8,25.9,74.7,25.8ZM77.1,28c-.1.1-.2.2-.1.3s.2.2.2.1S77.2,27.9,77.1,28Zm0,1.2a.4.4,0,0,0,.4.2c.2-.1.5-.1.3-.2l-.4-.3ZM70,24.6c-.1.1,0,.1.1.1s.1,0,.1,0l.2.2c.1,0,.1-.1.2-.2h-.2C70.3,24.5,70.2,24.5,70,24.6ZM76.5,27c.1-.1,0-.2-.1-.2s-.5.2-.3.3S76.4,27.1,76.5,27Zm-1.6.7h-.2s-.2.3,0,.2A.2.2,0,0,0,74.9,27.7Zm.9-1.6-.3.3c.2,0,.4-.1.4-.2S76,26.1,75.8,26.1Zm-.7.8h-.2c-.2,0-.4.1-.4.2s.3.1.6-.1l.4-.3h-.1ZM67.9,19h.5c.1,0,.1-.1.2,0h.1c0,.1,0,.1.1.1H69c.1.1.1.1.3,0l.4-.2.2-.2.2-.2h.2c.1,0,.1-.1.2-.2h.1l.6-.4c.1-.3,0-.2.1-.3s.2,0,.2-.1h-.1l-.4-.2h-.6c-.1,0,0-.1-.1-.2H68.6c-.1.1-.2.2-.1.3s.1,0,0,.1h0v.2c0,.1.1.1,0,.1h-.2c-.1-.2-.1-.2-.2-.2a.1.1,0,0,0,0,.2l-.3.3c0,.1-.1.1-.1.2s-.1,0-.1.2l-.2.3v.2c0,.1,0,0-.1.2s-.2.2-.2.3-.1.1,0,.2.2,0,.1.1v.2a.4.4,0,0,1-.1.3c-.1.1-.2.1-.2.2H67c0,.1,0,.1-.1.1h-.2c-.1.1-.1.1.1.1s.1-.1.2,0h.1c.2,0,.2.1.2,0s-.1-.1,0-.1h.3c0-.1,0-.1.1-.2H68a.1.1,0,0,0,.1-.1v-.2c-.1-.1-.1,0-.1-.1h.2c0-.1.1-.1-.1-.1h-.2C67.9,19.1,67.8,19.1,67.9,19Zm-6.8,3.7h-.5c0-.1,0-.1-.1-.1v-.2c-.1,0-.2-.3-.2-.3h0v-.2a.1.1,0,0,0-.1-.1v.2c-.1.1-.1,0-.1,0l-.2-.2v-.2a.1.1,0,0,0-.1-.1V21c0-.2-.1-.1-.2-.3v-.2c0-.1,0-.1.1-.1s.1-.1.1-.2a.1.1,0,0,1,.1.1c.1,0,.1,0,.1-.1l.2-.3v-.4c0-.1-.1-.3,0-.3s.1-.2.1-.3v-.2c.1-.1.1-.1.1-.2a.5.5,0,0,0,.1-.3h0c.1,0,.1,0,.1-.1l.2-.2v-.2H61c0-.1-.1-.2-.1-.3s.1-.1,0-.1-.1-.1-.2-.2v-.3h-.3c-.1-.1,0,0,0,.1s-.1,0-.2,0-.1-.2-.2-.3h-.4a.3.3,0,0,1-.1.2h0a.3.3,0,0,0-.1.2h-.1v.3h0a.3.3,0,0,0-.1.2h-.1a.5.5,0,0,0-.1.3.1.1,0,0,1-.1.1h-.1a.3.3,0,0,0-.1.2c.1,0,0,0,0,.1v.3h0c0,.1,0,.1-.1.2h0c.1.1.1.2,0,.2h-.4a.1.1,0,0,1-.1.1c-.2,0-.2-.2-.2-.3v-.2a1,1,0,0,1,.1-.4v-.2a.3.3,0,0,1,.1-.2,1,1,0,0,1,.1-.4h.1c.1,0,.1,0,.1-.1h-.2a.1.1,0,0,1,.1-.1.5.5,0,0,0,.1-.3h-.2a.3.3,0,0,0,.1-.2h-.1c-.1,0-.1-.2-.2-.2s-.2,0-.2.1,0,.1,0,.1H58v.4h-.2c0-.1-.1-.1-.1,0s0,.1,0,.1h0c0,.1.1.1.1.2h0c0,.1-.1.1-.1,0s-.1,0-.1.1h-.1c-.1-.1-.1-.1-.1-.2h-.1a.1.1,0,0,1-.1.1c-.1-.1,0-.2,0-.3h0c-.2,0-.3.1-.3.2h0a.2.2,0,0,0,.1-.3l-.2-.3h-.2c0-.1-.1-.1-.2-.2h-.4l-.3.2h0c0,.1,0,.1-.1.1s-.1,0-.1,0h-.2c-.1-.1-.2-.1-.2,0h-.3c-.1,0,0-.1.1-.1h.2a.1.1,0,0,1,.1-.1h.1c.1-.1.1-.1.1-.2v-.2h.2a.3.3,0,0,1,.1-.2v-.3c0-.1,0-.2-.1-.2l-1,.3H53.7l-.4.3h-.6c-.3.1-.6.3-.6.4s0,.1.1.1-.1.2-.1.2h-.7c0,.1,0,.1-.1.2H51c-.1,0,0,.1,0,.1h.1a.1.1,0,0,1,.1.1s-.1,0,0,.1h0c-.1.1.1.1.2.2a.1.1,0,0,0,.1-.1.1.1,0,0,1,.2,0c.1,0,0,.1,0,.1h.7c.2-.1.2,0,.3.1h.4l.2.2h-.1c0,.1-.1.1-.2,0h-.2c.1,0,0,.1,0,.1h-.6c-.2,0-.2.1-.2.2H50.9c-.3,0-.2.4-.2.5v.2c.1.1,0,.1,0,.2s.1.1.2.1h2.5a1.4,1.4,0,0,1,.2.4h.2l.3.2a.1.1,0,0,0,0,.2c0,.1.1.1.2.3s.1.1.1.2,0,0-.2,0h-.8l-.3-.3H50.9c-.6-.1-.6.2-.6.2v.2h-.1v.3h.2a.1.1,0,0,1-.1.1.4.4,0,0,0,.1.3l.4.3c.1.1.1,0,.1.1h.8l.3.2h-.1a.1.1,0,0,0-.1.1V23h-.2a.3.3,0,0,0-.1.2h0a.3.3,0,0,1,.1.2c0,.1.1.2,0,.2h-.1c-.1.1.3.1.4.1s.2-.1.3,0h.4c.1.1.1,0,.2,0s.2,0,.2,0h1.2c.2,0,.1-.1.3-.2h1.1c.2,0,.1-.1.3-.2h.4l.2-.3h.4c0,.1,0,0,.2,0h.3a.1.1,0,0,1,.1.1c0,.2-.1.1-.1.1h.3c.1,0,0,0,.1.1v.2h.3c0,.1,0,0,.1.1h.1a.1.1,0,0,0,.1-.1h.4a.3.3,0,0,0,.1-.2h.6c.1,0,0-.1,0-.1s0-.1.1-.2a.3.3,0,0,1,.1-.2h-.1c-.1,0-.1-.2-.1-.2h.2c.1,0,0-.1,0-.1h-.4c-.2-.1-.2,0-.3,0l-.3.2a.1.1,0,0,1,.1-.1c.1-.1.2-.1.2-.2h-.2c0-.1.1-.1.1-.2h0a.2.2,0,0,1,0-.3c.1-.1.2,0,.2.1s0,.1.1.2,0,.1.1.1h.2c.1-.1,0-.1,0-.1s-.1-.1,0-.2h.3c.1-.1,0-.1.1-.1s.1,0,.1,0h.1c.1,0,0,0,0,.1a.3.3,0,0,0-.1.2h.1c.1,0,0,.1.1.2a.3.3,0,0,1,.1-.2l.2-.2c0-.1.1-.1.1,0v.2h0c-.1.1,0,.1,0,.1h.2l.2-.2h0v-.2c.1-.1.1-.1,0-.1h0C61.1,22.8,61.1,22.8,61.1,22.7ZM60.4,24c.1,0,.1,0,.1-.1h0c-.1,0,0-.1,0-.1h-.1c0,.1-.1.1,0,.2a.1.1,0,0,0-.1.1C60.3,24.1,60.4,24.1,60.4,24Zm.5.6h0c-.1-.1-.1-.1-.1,0v.2h.1A.3.3,0,0,1,60.9,24.6Zm-.2,1.9h0Zm-.4-1.4s-.1.1,0,.1l.2-.2a.1.1,0,0,1,.1-.1c0-.1.1,0,0-.1a.1.1,0,0,0-.1-.1h-.1l-.2.2C60.2,25.1,60.2,25.1,60.3,25.1Zm4.6-3.7h0Zm-1.2,4.4h.2c.1-.1,0-.1,0-.1h-.2c-.1-.1-.1-.1,0-.2s.1-.2.2-.3h-.1l-.2.2c-.1,0,0-.3,0-.4v-.5a.1.1,0,0,0-.1-.1c-.1-.1,0-.1-.1-.2h-.2c.1-.1.1,0,.1-.1h-.1c0-.1.1-.3,0-.3s-.4.2-.4.3-.1.1-.1.2v.2h0a.1.1,0,0,1-.1-.1h-.2a.1.1,0,0,1-.1.1h.1a.1.1,0,0,1-.1.1H62c.1.1,0,.1-.1.1h-.3c-.3,0-.4.2-.5.2s.1.2.2.3h.1c0-.1.1-.1.1-.2a.2.2,0,0,1,.2.2.3.3,0,0,0-.1.2h.3c.1-.1,0,0,0,.1s0,.1.1.2h.2c.1,0,0,0,.1.1V26c.1,0,.1-.2.1-.2s0,.1,0,.1.1.1.2.2h.6a.2.2,0,0,1,.2-.2c.1,0,0,.1,0,.1S63.5,25.9,63.7,25.8Zm2.4-6.2h.4v-.2c.1-.1.1-.1.1-.2v-.2h-.2c-.1.1-.1.2-.1.1s-.2-.1-.1-.1h.1v-.2a.1.1,0,0,0-.1-.1v-.2h-.5c-.1,0-.1.1-.2,0s-.1-.1.1-.2h1c0,.1.1.1.1-.1s.1-.1,0-.2a.1.1,0,0,1-.1-.1h.4c.1-.1.1-.1.1-.2v-.2H65.7s.1-.1,0-.1h-.2c-.1.1-.2.1-.1.1h.1s.1.1,0,.1a.1.1,0,0,1-.1.1c-.1,0-.2,0-.2-.1h-.4a.2.2,0,0,0,0,.3c0,.1,0,.1.1.1h0c0,.1-.1.1-.1.2h0s-.1.1-.1,0V17c0-.1,0-.2-.1-.2h-.2s-.2,0-.2.1,0,.1.1.2a.1.1,0,0,1,.1.1s-.1.1,0,.1.1.2.2.1a.1.1,0,0,0,.1-.1c.1,0,.1,0,.1.1l.2.2s.1.1,0,.1h-.5c0,.1.1.1,0,.2s0,0-.1.1v.2a.1.1,0,0,1-.1.1c0,.1,0,.2-.1.2s-.1.1-.2,0,0-.1-.1-.2-.1-.1-.2-.2a.1.1,0,0,0,0-.2h-.1c.1-.1.1-.1,0-.1s-.1,0-.2,0h-.5c0,.1-.2.1-.2.2s.1.1.1.2v.5h-.1c-.2.1-.1.2,0,.3s.2-.1.2,0H63c.1,0,.1,0,.1.1h.1a.1.1,0,0,1,.1.1h0v.2a.3.3,0,0,1,.1.2h.1V20h.1v.5h0v.2s-.1.1,0,.1h.1v.2h.3c.2-.1.2-.1.2-.2s.1,0,0-.1a.8.8,0,0,0-.1-.3v-.2h.3l-.2.2c0,.1.1.2.1.3h.3s-.1.1.1.1h.3c0-.1-.1-.1,0-.1h.3a.1.1,0,0,0,.1-.1c.1,0,.2.1.2,0h.1c0-.1-.2-.1-.1-.1h0a.1.1,0,0,1,.1-.1h.2C66.1,19.8,66,19.7,66.1,19.6ZM64,24.9h.2c0-.1,0-.1.1-.1h0c0-.1,0-.1-.1-.1h-.3v.2h0a.1.1,0,0,0,.1-.1.1.1,0,0,1,.1.1Zm89.1,41.5c-.2,0-.2.1-.2.3s.2.2.5.2h.4l.5-.2c.3,0,0-.1,0-.2s.3-.2.4-.3-.3.1-.6.1h-.5c-.3-.1-.2.1-.2.2Zm82.8,36.8h0Zm-9-1.5c.3,0,.4.2.5.2l.3.2c.2,0,.4-.1.3-.2s0-.2-.2-.3l-.3-.2h-.3c-.1-.1-.2-.1-.2-.2l-.4.2C226.6,101.6,226.7,101.8,226.9,101.7ZM241,53.4a8.7,8.7,0,0,1-2.5-1.5c-.2.1-.4.2-.2.6a2.9,2.9,0,0,1,.5,1.6c.1,1-.3.7-.7,1.2s.1,1,.3,1.3,1-.3,1-.3a3.4,3.4,0,0,1-.5-.8c-.3-.6.5-.1,1.2.2s.7,0,.8-.6,1.5-.9,1.4-1.3S241.6,53.4,241,53.4Zm-14.9,47.4h-.6c0-.1,0-.3-.1-.3s-.6,0-.6.2,0,.3.3.4h1.6a.3.3,0,0,0-.1-.2c0-.1,0-.2-.1-.1h0l-.3-.2h-.1c-.1-.1-.3-.3-.4-.2s0,.2.1.3Zm10.3,2.5c.2.2.5-.1.6-.1s.2-.2.1-.2h-.9S236.2,103.2,236.4,103.3Zm1.6-.6c-.1,0-.1.1-.1.2h.1Zm-3.8-8.2.3.2c.1.2.2.2.3.2s-.3-.3-.4-.6-.3-.4-.1-.4.5,0,.6,0,.3.2.2,0-.5-.3-.4-.3l.4-.3V93h-.6c-.1.1,0,.1,0,.2l-.4.2s-.1-.2,0-.2.2,0,.2-.2v-.2l-.2-.2c0-.1.1-.1.2-.2h-.1c-.2.2-.4.3-.4.5v.4c-.1.1,0,.2.1.3s0,.1-.1.2.1.1.1.2.1.1.1.2S234.1,94.4,234.2,94.5Zm1.6-29.2c.2,0,0,.1.4.1s.4-.1.4-.3.1-.2-.1-.4a.4.4,0,0,0-.5-.1c-.5.4-.4.4-.6.4s-.1-.3-.3,0-.4.3-.2.5,0,.3.2.4.5.3.5,0S235.5,65.3,235.8,65.3Zm-1.1,27.1c0,.1-.2.3,0,.2h.2C234.8,92.3,234.7,92.3,234.7,92.4Zm.1,4.3h1a1.5,1.5,0,0,1,.7.3c.1,0,.4.1.3-.1a1.4,1.4,0,0,0-.7-.6c-.3-.1-.2-.3-.5-.1s-.2.2-.4.2h-.3c-.3,0-.5.1-.5.3S234.6,96.7,234.8,96.7ZM230.1,85H229l.2.2v.5c-.1.2-.1.4,0,.4s.2-.2.4-.3l.4-.3c0-.1.1-.1.1-.2S230.2,85,230.1,85Zm3.4,11.6a.6.6,0,0,0-.8.1c-.1.2.3.3.6.3s.4.1.5-.1S233.5,96.6,233.5,96.6Zm-2.3,5.4.7-.4.2-.2h.4c.3,0,1.2-.2,1.2-.4h-.4c-.6,0-1.1-.1-1.3.1h-.5c-.3.1-.4,0-.7.2l-.4.5c0,.1-.1.2,0,.3Zm-.5-16.2-.3.4c0,.1-.2.3,0,.3s.1-.2.2-.4.2-.1.3-.3.1-.4,0-.5A.6.6,0,0,0,230.7,85.8ZM229.3,101c.4-.1.8-.3.8-.5s-.1-.3-.2-.1,0,.3-.4.3h-1.2c0-.1-.1-.3-.6-.1s-1,.3-.3.4Zm1.3-15.4h-.3c-.2,0-.3,0-.3.2V86c-.1.2,0,.2-.1.3s-.3-.1-.3.1a.4.4,0,0,0,.4.3c.2.1.2.1.2.2s.2,0,.2-.1v-.2a.6.6,0,0,1,.1-.8Zm-117.2-1ZM228,83.9v.2a.8.8,0,0,0,.2.4c.1.1.2-.1.3-.2s0-.1,0-.2v-.2c0-.2,0-.1-.1-.2h-.9c-.1.1,0,.1.1.3S227.9,83.7,228,83.9Zm.8-4.6H228c-.2-.1-.4-.2-.6.1a1.1,1.1,0,0,0-.1.5,2,2,0,0,1-.1.7c-.1.2-.1.2,0,.4s.1.1,0,.2h-.3s-.1.2,0,.3.1,0,.1.2.1.2.1.3.1.1.1.2-.1.2,0,.2.2-.1.2,0,0,.3.1.3.2,0,.2-.1h.2v.2c-.1,0-.1.2-.1.3s.1.3.2.2h.1c.1.1.2.1.1.1h.2a.1.1,0,0,0,.2,0v-.2h.6l.4.4c0-.2,0-.3-.1-.4s-.3-.2-.1-.2l.4.2c0,.2.1.2.2.2h.1c0,.1,0,.2.1.2l.2.2h.3s-.2,0-.1.1.2.3.3.2v-.4c0-.1-.1-.1-.3-.2s-.2-.1-.2-.2-.2-.2-.1-.2.3,0,.2-.1H230c0,.1.1.1,0,.1s-.1-.2-.2-.4-.3-.2-.4-.1,0,0-.2.2-.2.2-.3.1-.4-.3-.4-.3v-.2c-.1-.2-.2-.3-.2-.4h0v-.4c.1-.2,0-.2.1-.3h.3c.1,0,.1,0,.1-.2s0-.1.1-.3a1.3,1.3,0,0,0,.1-.5c-.1,0-.3-.3-.4-.5a.4.4,0,0,1,.1-.3Zm-8.2,21.2h1.2l.3.2h.7v-.8h-.4c-.2,0-.1.1-.2,0h-.3l-.3-.2c0-.2-.2-.2-.2-.3s.2-.2,0-.2h-1L220,99c-.1,0-.3,0-.3.2s.2.2-.1.2h-1.2c-.3-.1-.2-.2-.3-.3h-.3l-.5-.2c-.2-.1-.3-.2-.4-.1h-.8c-.1,0-.1.1-.2.3s-.1.2-.2.2h-.1c-.1.1-.2,0-.2.1h1c0,.1,0,.1-.1.2s0,.1.2.1h.4c.1,0,0-.1.2,0l.5.2h.3c.2-.1.2-.2.3-.1s.2.2.3,0h.6l.8.3h.7Zm-6.1-7.1c.1,0,.1,0,.1-.1h-.1Zm-1.2.2h.3c.1.1.1,0,.1-.1h-.2c0-.1-.2-.2-.2-.2h-.1c0,.1-.1.1-.1.2Zm1.7-.5c-.1,0-.2,0-.2.1h-.1c0,.1,0,.1.1.1h.2c-.1,0-.1-.1,0-.1Zm-2.2-.1h0c.1,0,.1,0,.1.1h.3Zm28.4,9.9h.3Zm-73.4.4a4.6,4.6,0,0,1-1.5,2c-.8.7-1.5.4-2.2,1.1a1.9,1.9,0,0,0-.7,1.8,1.9,1.9,0,0,1-.2,1.4c-.2.4-1.1,1.1-.8,2s-.1,1.1.6,1.5a1.5,1.5,0,0,0,1.7.1c.2-.2.4.1.9-.4a26.3,26.3,0,0,0,2.7-6.5c0-.8-.2-.9,0-1s.7,0,.5-.5S168.2,102.9,167.8,103.3Zm48-4.8c.1,0,.1.2.1-.2v-.7a1,1,0,0,0,.1-.4v-.5c.1-.1.2-.2,0-.4l-.6-.3c-.3,0-.3.2-.4-.1s-.2-.6-.4-.7-.6-.2-.6-.2-.1-.4,0-.4-.1-.1-.1-.1.1-.2.2-.2.1-.1,0-.3l-.3-.2c0,.1-.2.2-.3.2h-.1c.1-.1.3-.1.1-.2h-.3l-.3-.2c-.1-.1,0-.1-.1-.2s-.2-.4-.3-.4-.3.2-.4,0-.1-.3,0-.3l-.4-.3h-.5c0-.1,0-.2-.1-.2H211v-.2l-.4-.3-.5-.3h-.5s-.1-.3-.2-.3l-.2-.3-.2-.2h-1.2c-.4-.3-.7-.4-.7,0s.5.7.8,1,.5.1.7.4l.6.7c.1,0,.1.4.3.5s.3,0,.5.3l.3.5c.1.2,0,.5.3.6s.4.1.4.4.3.3.3.5a3.3,3.3,0,0,1,.3.6c.1.2-.1.5.4.8s.4.2.5.4.3.2.4.3l.3.4.7.5h.3a.7.7,0,0,1,.5.4c.1.2.3.5.3.3s-.1-.4,0-.3.3.3.4.2-.1-.3.1-.2S215.6,98.6,215.8,98.5Zm-3.4-5.6v-.2a.1.1,0,0,0-.1-.1h-.2Zm-17.6-5.8c-.1-.2-.5-.3-.5-.3a5.6,5.6,0,0,0-.3,2,.8.8,0,0,0,1,.7c.5-.1.6-.3.7-.7a1.1,1.1,0,0,0-.2-.8Zm39.8-45.2c-.1,0-.2,0-.2.1l.3.5c0,.2.1.2.1.4s0,.1.1.4,0,.3.1.5l.3.2c.1.1,0,.2.1.3l.4.3.6,1.3a4.2,4.2,0,0,1,.6,1.4c.1.4,0,.7.1,1s.4.2.5.7.1.8.2.9.3.2.3.8.2.6.4.6.1-.5,0-.7.2-.1.5,0,.4.4.5.3-.1-.3-.3-.6-.2-.1-.4-.5l-.6-.6a10.5,10.5,0,0,1-.4-1.7c0-.3-.2-.6.2-.5l.7.3c.2.2.5.4.2,0l-1.3-1.6c-.1-.3-.2-.3-.2-.4l-.4-.6-.2-.3c-.1-.1,0,.1-.1-.1s0-.2-.2-.4-.3-.2-.3-.4-.1-.5-.2-.6-.1-.3-.2-.3l-.3-.4.4.2c.1-.1-.1-.4-.4-.6s-.5-.3-.5-.5l-.2-.4c-.3-.1-.8-.2-.6,0l.4.3c.1.1,0,.2.1.2s.2,0,.2.1-.2.1-.2.2h-.1Zm14.6,55.8-.3-.2c-.1,0-.1.1-.2-.1l-.6-.4-.8-.2-.6-.2h-.5l-.5-.2h-.6c0-.1,0-.2-.2-.3h-.3l-.8-.2a1,1,0,0,0-.7-.2l-.5-.2c-.1-.1-.3,0-.4.1s0,.2,0,.3h-.8v.2c-.2.1-.3,0-.3.1v.3h-.2c-.2.1-.3.2-.4.1s-.3-.2-.3-.4.1-.3-.1-.2-.2.4-.2.2a.5.5,0,0,1-.2-.4c0-.2-.1-.2,0-.4s.3-.1.2-.2-.3-.3-.2-.3v-.2H239a1.5,1.5,0,0,0-.8-.3c-.4.1-.3.3-.6.3l-.5.3c0,.1-.2.3.2.3s.5,0,.5.2.1.3.5.3h.5c.3,0,.5-.1.5.1s0,.2-.1.2a.3.3,0,0,1-.4,0l-.3.2c-.2.1-.5-.1-.5,0s-.1.1.1.3l.3.3c.1,0,0,.1.1.2s.1.3.3.2.1,0,.2-.3.2-.7.3-.6-.1.3,0,.4.3.3.4.3l.4.2h.2l1.5.4c.7.3.8.3.9.5s.2.1.3.4a1.1,1.1,0,0,0,.3.6c.2.1-.1,0,.1.2l.3.2c0,.1-.1.2-.1.4s-.1.2.2.2h.6l.2.3.4.4h1.2c.3.1.1.2.4.1l.5-.2c.1-.1.2-.1,0-.2l-.6-.3c-.4-.1-.5-.2-.5-.4s-.3-.3-.2-.2l.5.4.5.2h.5l-.2-.2h.3c.1,0,.1-.2.1-.3v-.2s.2.3.4.2,0-.2.2-.2.3.1.6.2.3.3.6.3.3,0,.4.2l.5.7.5.4q.2.3.3.3l1.2.2.7.2h.4c0-.1-.2-.2-.2-.2s.4,0,.3-.1-1.1-.2-.9-.3h.4l-.7-.2c-.1,0,.2-.2,0-.3s-.2-.2-.4-.2-.2-.1-.3-.3l-.2-.3c-.1-.2-.1-.1-.2-.2s-.2.1-.3-.1l-.2-.3c-.1-.1,0-.1-.1-.3h.4c.1-.1.2-.1.2-.2s0-.2-.1-.2h-.5l-.4-.3h-.6V98A.4.4,0,0,0,249.2,97.7ZM232.8,65.8c.3.6.7.6.6.9s-.2.3,0,.6.4.7.4.4-.1-.7,0-.4.2.4.3.5.1-.4.1-.4.2,0,.2-.3a5.4,5.4,0,0,1,.1-.8c.1-.2.1-.4-.1-.5s-.1-.3-.2-.4-.1-.2-.2-.2-.5-.3-.1-.3.7.3.7.1,0-.6.1-.6.2.2.7.1l.6-.3c.2-.1.6-.3.8-.1s.2-.1.1.4,0,.5.1.6h.5c.1,0,.1-.2.3-.5s.5-.4.4-.5-.5-.1-.4-.3.4.1.9.1.7.2.7,0,.1-.7.2-.4,0,.6.1.4.3.2.3-.2,0-.6.1-.7l.2-.2c.1-.1.4-.1.3.2s-.3.6-.1.5a1,1,0,0,0,.6-.8c0-.3-.3-.6-.3-.9s-.1-.7-.2-1.1-.2-.3-.1-.6.5-.2.5-.4a5.4,5.4,0,0,1-.1-.8c.1-.4-.3-.8-.4-.9s0-.4-.1-.5a.7.7,0,0,1-.5-.5c-.2-.3,0-.4-.2-.5s-.3,0-.3.2.3-.1.3.1-.2.2-.2.2a.1.1,0,0,1-.1.1l-.3-.3c-.1-.1-.1,0-.2.3s-.1.1,0,.4.2.2.2.5-.5.2-.2.3.4-.4.4.1a6.8,6.8,0,0,1-.2,2.1c-.2.2-.2.4-.3.6s-.5.7-.9.6-.3-.2-.3-.4-.1-.6-.3-.2a1.4,1.4,0,0,0,0,.9c0,.1-.3.3-.3.6s.1.5-.2.6-.5-.3-1-.1l-1.1.4a5.7,5.7,0,0,0-.9.8c-.2.3-.4.1-.5.4s.2.4.1.4S232.5,65.3,232.8,65.8Zm10.4,34.1c-.2-.1-.3-.1-.4.2l-.4.4c.1,0,.9,0,1-.2V100A.2.2,0,0,0,243.2,99.9ZM228.7,82.3v.2c.1,0,.1-.1.2-.3s-.1-.1,0-.1Zm-1.3-9c-.7.6-1.5,1.4-1.1,2.3s1,1.5,1,.8a4.2,4.2,0,0,1,.4-1.5c.2-.6.4-.8.3-1.1S227.6,73.1,227.4,73.3Zm-4,16.9-.4.3h-.3l-.2.3-.3.4-.5.4-.5.3h-.4l-.2.2c-.1.1-.1.4-.2.6s0,.3-.3.2l-.6-.2h-.4a.8.8,0,0,0-.5.5,1.3,1.3,0,0,0-.1.5c.1.1,0,.4.1.4v.2c0,.1.1.1.2.1h-.1c0,.1-.1.1.1.1l.3.2.2.2a1,1,0,0,1,.1.3s-.2.1-.1.2.1.1.1.2v.3a.4.4,0,0,0,.1.3h1.2c0-.1.1-.3.1-.1v.4c0,.1,0,.3.1.3l.3-.2h.4c.1-.1,0-.1.2-.1h.3l.2.2c.1,0,0-.2.2-.1l.4.2h.1c.1.2-.1.3.1.3h.6l.2-.2.4-.4v-.2c0-.1.1-.1.1-.2h0c.1-.1,0,0,0-.1s.1-.1,0-.2-.2,0-.2-.1h.3V95h.1a.2.2,0,0,0,.3-.1c0-.1-.1-.2-.1-.3h.2a.3.3,0,0,0,.1-.2l.2-.5c.1-.2,0-.2.1-.2s.1.1.2,0-.1-.4,0-.3.2.3.3.3h.2c.1,0,.3,0,.2-.1l-.5-.3c-.2-.3-.4-.3-.4-.5s0-.1.1-.1.1-.2,0-.3-.2-.2-.2-.2l-.2-.2c0-.1-.1-.1,0-.1s.1-.1.1-.2-.2-.1-.2-.2h.3c.1-.1.1-.1,0-.1s-.2-.1-.2-.2v-.2h.7a.1.1,0,0,0-.1-.1c-.1,0-.1-.2-.1-.2h.5c.2-.1.4-.1.4-.2h-.5l-.3-.2h-.3c-.1,0,0-.1,0-.1h-.2s-.2-.2-.1-.3h.1l-.2-.2h-.2v-.2h-.2a.2.2,0,0,1-.2.2s-.1,0,0-.1h-.1V89h-.2v.2h-.1v.2a.1.1,0,0,1-.1.1l-.2.2h-.5c.1.1.2,0,.2.1s.1,0,0,.1h-.3C223.5,90.3,223.5,90.1,223.4,90.2Zm8.1-2.7c-.1.1,0-.2-.1-.1s-.2.2-.3.3l-.3.2a.1.1,0,0,1-.1-.1c.1-.1.1-.1.1-.2s-.1-.2-.2-.2-.2,0-.3.1-.2.2-.2.2.1.1,0,.1h-.4l-.2.2c-.1.1-.2.1-.1.2a.4.4,0,0,1-.1.3c0,.1-.1.3.1.2s.2-.1.2-.3.2-.4.3-.4.1.1.1.2.1.2.1.1.2-.2.2-.1h.2c.1,0,.2.1.1,0a.3.3,0,0,1-.1-.2h.5l.2.3h-.1c-.1.2,0,.1,0,.3v.2l.2.2c0,.1.1.1.2.1h.6c.1,0,0,.1,0,.1a.2.2,0,0,0,.3-.1c.1-.1.2-.1.1-.3l-.2-.3c-.1-.2-.1-.2.1-.3s.2-.3.2-.2.1,0,.2.3.2.6.1.4v-.4h.2c.1,0,.1-.1.1-.2a.1.1,0,0,0,0-.2c-.1-.1-.3-.3-.2-.4h0a.3.3,0,0,0-.1-.2.3.3,0,0,1-.1-.2h.1c0-.1.1-.1,0-.2l-.3-.2c-.2-.1-.2-.2-.3-.3s-.2-.1-.2.1,0,.1.1.2.1.2-.1.2-.1-.2-.1-.1,0,.2-.1.2,0,.1-.1,0-.2,0-.2.1v.2Zm-1.1,9.8H230l-.4-.3s-.1-.1,0-.3.2-.1-.1-.4-.9-.6-.7-.7h.2c.1.1.2,0,.3-.1h.3l.4-.3c.1-.1,0-.2.2-.2h.2c.2,0,.3-.1.2-.2s0-.1-.1-.1H230c-.2.2-.1.2-.2.2h-.6c-.1,0-.1-.2-.2-.1l-.4.4c-.1.1,0,.2-.2.1s-.4-.4-.5-.5-.3-.6-.1-.8a.6.6,0,0,1,.7-.1h.8c.2.1.2,0,.5,0h.7a.8.8,0,0,0,.7.1c.2-.1.2,0,.5-.3s.3-.2.3-.4-.1-.3-.2-.3-.2.2-.3.3-.2.2-.3.2h-2.1l-.4-.2h-.3c0,.1-.1.1-.2.2h-.5c-.2.2-.2.3-.2.4v.3c0,.2-.1.2-.1.4v.2c-.1.1-.2-.2-.3-.1s-.2.2-.2.4v.6c0,.1,0,0-.1.1s0,.3-.2.4-.2.5.1.6.3-.1.4.1.1.3.1.4a.8.8,0,0,1-.1.4c-.1.2-.2.5-.1.6h.8c0-.2-.3-.3-.1-.4l.2-.5c-.1-.2-.1-.1-.1-.3s.2-.2.2-.4l-.2-.3c.1-.1.4-.4.6-.2s.1.2,0,.4,0,.3.1.4.2.1.2.3,0,.4.1.4h.4a.1.1,0,0,0,.1-.1.3.3,0,0,1,.3-.3h.7C230.5,97.4,230.6,97.3,230.4,97.3ZM58.5,83.2c-1-1.6-2.9-1.3-4.7-1.4a5.1,5.1,0,0,1,.6-2.1c.2,0,.3.2.6.1s.3-2.2.1-2.6-2.9,3-4.2,3.1-3.8-2.1-4.1-3.2l.3.2a4,4,0,0,1,.5-3.7l-.2.2c-.3-3.6,4.6-3.6,6.9-3,.1-.3-.1-.4-.1-.7s2.9.7,3.8.4h.4s-.1-.1,0-.1h.8v.2h.1a.4.4,0,0,0,.2.3l.3.2v.5l-.2.5h.1s0-.2.1-.2h0s.9,2,1.5,2.2c-1.3-.5,1.4-6.2,2.3-7s3.9-1.8,2-4.4c.3.4.7,0,.8-.3a2.7,2.7,0,0,1,.2,1.3,9.7,9.7,0,0,0,.8-2.2c-.1-.1.2.6.3.7.8-2.1,2.6-2.1,4.3-2.7h-.3a1.7,1.7,0,0,0-.3-.6c1.4-1.2,3.7-3.1,5.6-3-.2.4.1.2.4.3l-1.2,1.2c.6-.6,2.4-.7,3.3-1a3,3,0,0,1-2.8-2.9,1.7,1.7,0,0,1,1-.3c-.2-.4-.4-.3-.2-.5-2.4-.7-3.9,1.3-5.9,2.1,1.6-1,3.4-3.2,5.2-3.6s4.3.1,6.2-.7c3.4-1.3,1.9-3.7-1.2-2.2a4.5,4.5,0,0,1,2.3-1.2c-.9-.2-1.2-.7-2.3-.6a2.1,2.1,0,0,0,.4-.6c-.5-.6-.8-.6-1-1.3s-.1-2.6-.8-4c-1,.9-2.3,1.2-3.4,1.9s0-3.7.3-3.7-.9-.3-1.4-.3c.4-3-4.2-.6-4.9.9s-.2,2.6-.7,3.8-2.8,2.9-2.8,2.6c-.1,1.4-.1,2.8-.2,4.1-3.2-.4-3.2-9.3-8.8-7.7.2-.6.1-1.4.3-1.9l-1.3.4c1.5-2.2,2.8-5.9,5.3-6.9l-1.1-.8a3.8,3.8,0,0,0,5-.9l-.8-.8a1.7,1.7,0,0,0,2.3-1.3l1.6.4s0-.3-.1-.3.3.4.4.4,2.2-2.4,1.9-2.3h.1c0-.1-.1,0,0-.1s.1-.1,0-.1a.1.1,0,0,1-.1-.1h0s.1-.1.1,0,.1,0,.1.1h.7c.1,0,.2,0,.2-.1h0a.3.3,0,0,1,.1-.2.1.1,0,0,1-.1-.1h.1c.2-.1.3-.2.2-.2l-.2-.2h-.3a.1.1,0,0,1-.1-.1h.1c0-.1,0-.1-.1-.1h-.3c.1,0,.1-.1.2,0h0a.1.1,0,0,0,.1.1s.1-.1,0-.1h-.1a.1.1,0,0,0-.1-.1h-.1a4.9,4.9,0,0,1-1.1-.4c-.3.8-3.2,3.5-3.2,3.8-.3-1.5.1-2-.2-3.4-.3.5-.9.9-1.2,1.4s-.2-1.3.5-1.9l-1.1-.5c.1,0,.8-.8.4-.7h-.1c0-.1.2-.1.2-.2s0-.1.1-.1h.1a.4.4,0,0,0,.1.3h.2a.1.1,0,0,0,.1-.1c0-.1.1-.2,0-.2h-.2v-.2h.1a7.5,7.5,0,0,1-.4-2.6c-1,0-.9,1-1.1,1.1s-.6.1-.9,1-.5,1.9.5,2.5-.3.3-.9.5a.7.7,0,0,0,.6-.1c-.8,1.2-1.8,1.3-2.3,2.7h.4l-1.1.4c.1.1-.1.4-.2.4a.7.7,0,0,1-.1-.5c.3-.1.5.1.8-.1s-.1-.2-.1-.3-.3,0-.2,0-.1-.3-.1-.5.7-.6.8-.9-.5.3-.6.2.1-.6-.1-.7-.1-.1-.3-.2-.3.1-.6.1,0,.2-.2.3l.4.9c-1.5-.5-4.6-.8-4.8-2.9-.9.1-1.4-.2-2.1.4h1.9a2.9,2.9,0,0,0-2.4,2.4,3,3,0,0,0-.3.9c.2-2-2.5-4.1-4.4-3.5.4-.1,1-.6,1.5-.8s-3.2-5-5.2-3h-.5c0-.1-.3,0-.2-.1h0c.2-.3.5-.3.5-.5s-.2-.2-.2-.3a1.4,1.4,0,0,0-.8.7c.9-3.1-4.5-.9-5.5-.5a8.5,8.5,0,0,1,3-1.5c-.5.1-3.5.5-4.5,1.4s0-.3-.1-.3-.2-.1-.4-.2a1,1,0,0,1,.1.3l.2.4a.6.6,0,0,0-.1.6c-1.5-3.7-4.6-4.3-7.4-6l.4-.6a6.8,6.8,0,0,1-1.4.2A8.7,8.7,0,0,0,27.4,12a1.2,1.2,0,0,0-.7.5s-.5-.6.3-.9c-1,.4-11.3,2.5-11.1,3s-.1,3.5,1.8,4.4c-.3.1-.8-.3-.9-.5l-.3,1c.3-.7-4.8-.4-5.3-.2s.6,1,1,1.3l-.8-.2c-.1.2-.2,1.2-.3,1.2s3.4.5,3.9.3a23.3,23.3,0,0,1-3.5,2.7c-1.4.8-3.9.7-3.4,3.1l1.3-.2c-.5.2-.9.7-1.7.8a4.3,4.3,0,0,0,.2,1.2l1.9-.6a12.3,12.3,0,0,1-1.3,2.9c1.3.1.9.2,1.9.6s.4-.5.6-.6a.3.3,0,0,0,0,.4l1.3-.2c-1.7,1.6-3.5,3.6-5.5,4.4a2.6,2.6,0,0,0-1.8.5,16.2,16.2,0,0,0,8.7-3.4c1-.8,1.7-2.3,2.7-3s2.3-.4,3.3-.9c-1,.6-2.3,1-3.1,2.2s2.9,1,3.2-1.2l.5-.3c.2.1.3.4.2.4h0a1.7,1.7,0,0,1,1-.1c.1.3,0,.4-.1.7s1.9,1.2,1,1.2c1.4,0,4.7,2.5,5.3,3.8-.2-.4.3-1.1.5-1.3a52.5,52.5,0,0,1,2.1,8.7c.1,1.4-.3,2.2,0,3.4s.3.9.6,1.8l-.2-.3a1.1,1.1,0,0,0-.1-.6l-.5-.3c-.2-.2-.4-.1-.5-.3l-.3-.3c-.6-.3-1.2-.2-.7,0s.6.2.5.3-.6,0-.3.3.6.4.7.5-.2.2,0,.5.2,0,.4.2.1.3.2.4.3,0,.3.1,0,.3.4.5l.5.3c.2.6.4,1.1.3,1a10.9,10.9,0,0,0-1.1-1,6.9,6.9,0,0,0,.3,2.5c-1.1.6-3.9,8.3-2.1,9H29c-.5.5,1.9,4.5,1.9,4.5,1.1,1.5,3.6,3.5,2.5,5.6a19.6,19.6,0,0,0,3.7,4.1c-.9-2.2-2.9-5.2-3.2-7.7,4,2.4,4,7.7,7,10.8.9.8,7.1,4.9,7.9,2.8.1-.1-.2-.1-.3-.1l.2-.2h.2l.5.2c.2.1.2.1.1,0l-.4-.2h.3l.4.4a5.6,5.6,0,0,0,4.8,1.8,11.4,11.4,0,0,1,2.1,2.8.2.2,0,0,0,0-.3c.7.9,2.9,1.5,3.9,2a1.5,1.5,0,0,1,.5-.9,3.8,3.8,0,0,1-2.5-.8C57.1,85.2,59.2,84.3,58.5,83.2Zm6.4-24.6c0,.1-.2.2-.8.4a1.4,1.4,0,0,1-1,.2c-.4.1-.2.2-.5.3s-.5.2-1,.1-.3-.2-.2-.4l.4-.6.3-.2h.2c.1.1,0,.2-.2.3l-.2.2c-.2.1-.1.2.1.2s.5-.2.9-.5.4-.1.6,0a.6.6,0,0,0,.6,0,.9.9,0,0,1,.6-.4H65C65.1,58.3,65,58.5,64.9,58.6Zm.9-1.3h.9c.2-.3.4-.2.7-.3h.2l.7-.5,1.7-.8c.2-.2.4-.2.2,0a2.1,2.1,0,0,1-1,.6H69l-.7.4c-.6.3-.3.2-.7.5s0,.1-.2.6-.7.2-1.4.1H64.7C64.7,57.6,65.1,57.4,65.8,57.3Zm-9.4-4.1.9-.4H58a.1.1,0,0,0,.1-.1h.4l.3-.3a2.1,2.1,0,0,1,1.6.1c.3.1.1.2.2.6s.7.2.9.3,0,.4,0,.7v.3a1.5,1.5,0,0,0,.4.6,1.7,1.7,0,0,0,1.1.4c.1,0,.2,0,.2.1h.1a1.6,1.6,0,0,1,.9.2c.3.2.4.7.5.9s0,.1-.1.2h0v.4h-.1c0,.1-.1,0-.1-.1l-.4-.2c-.3-.2-.3-.6-.4-.4s0,.3-.3.6-.1.3-.1.7-.1.3-.2.3l-.2.2h-.3a.1.1,0,0,1-.1-.1v-.8c-.1-.2-.3.1-.8.3s-.1-.5.3-.8.1-.2.1-.5a1.6,1.6,0,0,0-1-.8c-.3-.2-.4.5-.8.6s-.3.3-.6.9-.2.6-.2,1.2-.9,1.1-1.3,1.1-.1-1,0-1.6a2.9,2.9,0,0,1,.8-1.3c.3-.5-.2-.1-.6.1s.3-.4,1-1.1.8-.4,1.4-.3h1c.3-.1-.1-.2-.3-.3l-.5-.5c-.2-.1-.3,0-.4.1s-.6.2-.9.1-.1-.3-.5-.4-.3-.1-.1-.2.1-.4-.2-.3a9.8,9.8,0,0,1-1.7.7c-.6.2-.3-.3-.4-.4s-.6.3-1.1.2S56,53.5,56.4,53.2Zm-4.6-3.4c-.3,0-.2-.7-.3-1.1s0-.4.1-.6h.2s.2.1.2.2,0,.2-.2.3.2.4.5.8S52.1,49.8,51.8,49.8Zm-.1-4.7h.4c.1,0,0,0,0,.2s-.2.2-.2.4.3.2.3.3h0c0,.1-.1.1-.4.1s-.3-.1-.6-.3-.1-.1-.1-.3v-.5c.1-.2.1-.3.2-.3h.4Zm1.1.6c.2.1.4.4.5.2s.2-.3,0-.5-.6-.3-.2-.4h.2a.3.3,0,0,1,.3.3h0c0,.1,0,0,.1,0s.4-.3.3-.5-.3-.1,0-.3l.7-.2h.1c-.1.2-.5.1-.6.3s.4,0,0,.3l-.5.4h0a6.9,6.9,0,0,0,0,2.5c.2.7.1,1.1-.1,1.3s-.4.5-.5.4-.1-.2.1-.6.2-.4.1-.6h0c-.2-.3-.3-.5-.4-.5s-.2,0-.3-.2a4.5,4.5,0,0,1-.1-1.4C52.6,45.7,52.5,45.5,52.8,45.7Zm-2-5.6a3.3,3.3,0,0,0,.3-.6h.2c.2-.1.6-.1.6-.2s-.4.9-.6,1S50.6,40.4,50.8,40.1Zm-.2,2c.1-.3.5-.2.6-.5s-.2-.3-.1-.8.4-.2,1.1-.5h.4c.2.1,0,.2-.1.3s-.1.1-.1.2a15.6,15.6,0,0,1-1.3,1.3C50.5,42.7,50.5,42.5,50.6,42.1Zm-.2,4.3c.1,0,.4,0,.3-.1s1,.2,1,.5.1.2,0,.2a.8.8,0,0,1-.1.4c-.1.3-.2.4-.2.5h0c0,.2-.3.5-.4.1s-.1,0,.1-.5.5-.5.3-.7l-.6-.2C50.4,46.6,50.3,46.5,50.4,46.4ZM41.5,27.8c-.2-.3.2-.1.5-.2a.1.1,0,0,0,.1-.1c.1-.1,0-.3.1-.4h.5l.2-.2c0-.2-.4-.1-.1-.2s.8.1,1,0,0-.1-.3-.3a1.2,1.2,0,0,0-.8-.1H41.6c-.4.1-.3-.2-.2-.4s.3-.1,1,0h0l.8-.2a8.9,8.9,0,0,0,1.5-.2l1.2-.2c.6,0,.4.3.2.4h-.3c-.4.1-1,.2-.9.4s.3.3.6.3h.7c.6-.2.8-.3,1-.2s-.5,0-.5.2v.3c0,.2-.4.2-.6.3s-.1.1-.1.2a.4.4,0,0,0,.1.3c.1.2-.1.2-.3.3h-.1l-.4-.2a.1.1,0,0,0-.1-.1h-.1c-.2-.1-.8.1-.8.1a1,1,0,0,1,.1.3c-.1.2-.3.2-.5.2l-1.1.5c-.3,0-.2-.2-.1-.3l.8-.4c.4-.1.3-.2.3-.3s-.2-.1-.6,0-.6.5-.8.6A1,1,0,0,1,41.5,27.8Zm2,7.1a2.6,2.6,0,0,0-.9-.4c-.7-.2-.6-.4-.4-.7s.3.1.6.3a.6.6,0,0,0,.5.2h.6c.4-.1.5-.1.5-.2s0-.1.1-.2.4-.1.5-.3-.1-.6-.3-.8,0-.9.4-.6a1.3,1.3,0,0,0,.1.5c.1.2.4.1.5.2a.1.1,0,0,0,.1.1c.1.2.1.5.2.8s.9-.1,1.3-.4l1.1-.7h.4l.8.2c.4.1.4.4,0,.2a4.1,4.1,0,0,0-1.1,0h.6v.2a1.1,1.1,0,0,1-.6.3l-.4.2-.5.2h-.1c-.3.2-.2.2-.4.4h-.5a.1.1,0,0,1-.1.1H46c-.5-.1-.4.1-.6.3s-.3.2-.7.4A1.4,1.4,0,0,1,43.5,34.9Zm3,3.7H45.2c-.3,0-.2.2-.2.4s-.2,0-.4-.3.3-.4.4-.5.2.1.1.2.1,0,.4.1.4-.1.6-.3l.7-.3c.3-.1.4-.3.6-.4s.2.1.5.3.1,0,.4.1a2.5,2.5,0,0,1,1.3.4H49c-.5-.1-.4,0-.5.1s-.1,0-.8,0-.4,0-.9.1S46.6,38.5,46.5,38.6ZM57,85.5h-.8v-.2c-.1-.2.2-.1.3-.1h.3c.2,0,.2.1.3.3h0Zm92-19.7a.1.1,0,0,0,.1.1c.2-.1.4-.3.4-.4h0C149.2,65.5,149,65.7,149,65.8Zm-.1.4-.2-.2c-.1,0-.1.2,0,.3Zm-14.8-21-.3.2c-.1,0-.1.1-.2.2s-.1.1-.4.2l-.4.2c-.1.1,0,.1.1.2s.1-.1.2-.2h.2a1.6,1.6,0,0,1,.7,0h.2a.7.7,0,0,0,.1-.5c0-.1.1-.1.1-.3Zm.7,2.8c0-.1,0-.2-.1-.2V48a.1.1,0,0,0-.1.1Zm4.3,15.9h-.5a.1.1,0,0,0-.1.1h-1.4c-.2,0-.2.2-.2.3h.2l.4.2.4.2h.4c.1,0,0,.1.1.2l.4.2c.2,0,.2-.3.1-.4a.8.8,0,0,1,.2-.6C139.3,64,139.2,64,139.1,63.9Zm6.8,2.6h.8c0,.1.3.2.4.1h.6l-.6-.2h-.5c-.1,0-.3-.2-.5-.1S145.5,66.5,145.9,66.5Zm.3-2.4h.1c-.1-.1-.1-.3-.2-.4s-.1-.2-.2-.2l-.6-.2c-.1,0-.2,0,.1.2l.5.3h.1A.8.8,0,0,0,146.2,64.1Zm1.3-.3c-.1.1.1.1.2.1s0-.3-.2-.4h-.1c0,.1.1.1.2.2Zm-4.8-19.1c.1,0,.2-.3.2-.3l.4-.2c.1-.1.2-.1.2-.2h-.3a.5.5,0,0,0-.4.2c-.1,0-.2,0-.2.1s.1.1.1.2S142.6,44.7,142.7,44.7ZM226,86.8l-.6.3c-.2.2-.4.4-.2.3l1-.5c.2-.2.1-.3.2-.5s.1-.2.3-.2.3-.1.4-.3.1,0,.1-.1l-.3-.4a.3.3,0,0,1,.1-.2c0-.1-.1,0-.1,0s-.1.2-.1.3v.3c0,.1,0,.1-.2.2s-.2,0-.2.2S226.3,86.6,226,86.8ZM133.9,60.9c.3-.1.3-.6.3-1s.1-.6-.2-.6-.3.3-.4.6S133.6,61,133.9,60.9ZM135.6,48a.1.1,0,0,0,.1-.1h.1Zm3.5-2.1c.1-.3-.1-.3-.1-.3s0,.3-.1.5-.2.4-.1.5S139.1,46.1,139.1,45.9Zm-3.8,1.3c-.1-.1-.1-.2-.2-.1a.2.2,0,0,0-.2.2c0,.2.1.3.2.3s.2,0,.2.1h.1c-.1.1.1.1.1.1a.3.3,0,0,1,.1-.2c.2-.1.3-.2.2-.2s-.2-.1-.1-.2l.2-.2v-.2c-.1,0-.2-.1-.3,0s-.3,0-.2.1.1.1.1.2Zm-.4,1h.6s.1-.1,0-.1h-.1c-.1.1-.2.1-.2,0h-.1a.1.1,0,1,0-.2,0Zm5.6-3.3c.1-.1-.1-.1-.1-.1s-.5.3-.5.6.1.6.2.5l.3-.6c.1-.1.1-.1,0-.2A.3.3,0,0,1,140.5,44.9Zm102.2,85v-.2h-.1c-.1,0-.1.1-.1.2l-.2.3c0,.1.1.3.2.2S242.8,130,242.7,129.9Zm2.2,1.5h-1c-.5-.1-.7-.4-1.2-.6a3.5,3.5,0,0,0-.1.6,4.9,4.9,0,0,0,.1,1.1c0,.4.2,0,.2.2s-.1.1-.3,0-.1.1,0,.5a2,2,0,0,1,.1.7c0,.3.4.5.7.5s.1-.3.2-.4.2-.3.5-.4.2,0,.2.2h.2c.3-.2,0-.3.1-.4s.3-.3.4-.4l.6-1.2a.4.4,0,0,0-.1-.5C245.4,131.2,245.1,131.3,244.9,131.4Zm-6-6.3h-.2c-.1-.1,0-.1-.1-.2s-.4,0-.4.1h-.3c-.1,0-.2.1-.1.2h.8c.1-.1.2,0,.3,0s.2-.1.1-.1Zm4,5.5h0c-.1,0-.2.1-.1.2ZM218.6,78.1c-.4.1-1.8.5-1.4,1s.8.8,1.4.3,1.1-1,1-1.2A1.1,1.1,0,0,0,218.6,78.1ZM243,130.9h0Zm-18.6-30.3-.2.2c-.1.1-.2,0-.1.1s.2.2.3.1.3-.1.3-.2S224.6,100.6,224.4,100.6Zm-.9.4c.1-.1.3-.2.4-.4s-.3-.3-.7-.3-.3.1-.3.3.2.1.4.2S223.4,101,223.5,101Zm22.1,29.5h.3c.1,0,.1,0,0-.2h-.3c-.1,0,0,.1,0,.1S245.5,130.4,245.6,130.5ZM230.7,40.3h-.2s-.1.1-.1,0h-.3c0,.1-.1.2-.1.3a.1.1,0,0,0-.1.1c.1.1.1.3.2.2h.1l.3.2a.4.4,0,0,0,.1-.3s-.1,0,0-.1S230.7,40.4,230.7,40.3Zm12.4,90.3h0ZM153.8,56.7v0Zm76-16.4h-.2c0,.1,0,.1-.1.1s-.2.1-.1.2h.4Zm24.9-25.7c-.1-.1,0-.2-.1-.3h-.3v-.2h.2c.1-.4-.1-.8-.7-.7s0-.3,0-.5h-.7l1.3-.6-.7-.2.7-.2-.6-.4c.1-.3-.1-.6.1-.9l-.4.2c-.1-.1-.2-.2-.3-.1s-2.2-.9-1.9.2-.3-.1-.4-.3l-.5.6c.5-.1,1,.3.8.7s.7.1.8.6-.3-.3-.4-.4v.3c-1.1.1-1.5-1.6-2.7-1.8l.3.3c-.3,0-1.2-.6-1.4-.5l-.2.2-.2-.2c-.7.3-1.6-.2-2.4-.1h0a1.3,1.3,0,0,1-.9-.2h.5c-.7-.7-3-.7-4-.6a17.2,17.2,0,0,1-3.4.6,3.4,3.4,0,0,1,.6,1.2c.6-.1,1.4.8,1.4,1.3s-.8.1-1.5-.2-.7-.2-1-.4-.4-.5-.8-.5-.1.4-.3.8-4.1-.3-2.8,1.8l-.5-.3c0,.1.1.2.1.3a2.9,2.9,0,0,0-.8-.7v.2c-.2-.2-.3-.1-.5-.1s-.3-.1-.7.1c.5-1.5-1.9-2.3-3.1-2.1a38.4,38.4,0,0,0-3.6,1.4l.4-.4a1,1,0,0,0-1.7,0c0-.5-.1-.3-.2-.6l-.3.3c-.1-.3-1-.7-1-.3s0-.5.1-.6h.3v-.2c-.4-.4-1.8-.8-2.3-.2s.3,1.5-.6,1.7a.2.2,0,0,0-.2-.2c.4-.3.3-.6,0-.9h.3l.2.3c.1-1-.9.1-1.4.1s.1-.3,0-.4l1.1-.3a10.4,10.4,0,0,0-4.3.2l.7.4c-.1-.1-1.1,1,0,.9s0,.4-.1.5h.3a2.6,2.6,0,0,1,.5.9c0-.1-.9,0-1,0s.2.5.5.5a4.3,4.3,0,0,0-.1.5c-.5,0-.9-.4-1.5-.4s-2.7,1.3-3,0a10.1,10.1,0,0,1,.7,2.3c-.7-.3-2.7-.7-2.4-1.4l-.3-.2c0,.1.1.1.1.2a1.1,1.1,0,0,1-1.2-.5h.8a.8.8,0,0,0-.9-.8h0c.2-.9-.6-.8-1-1h-1.7c-.5-.4-1-.3-1.6-.4s.1.1,0,.2h-.3c.1.5.5.9.6,1.4s-4,1.1-3.5-.4a3,3,0,0,0-3,.8l.3.2-.3.2a2.4,2.4,0,0,0-1-1c.1.1.1.2.2.4a.6.6,0,0,1-1.2-.3c-.4.2-1,.1-.9.8l.7-.2c-.1.7-2.2,1.7-1.5,2.3l-.6.5a22.2,22.2,0,0,1,.9-3.7h-.4c1.7-1.1,1.1-2.4,0-3.5h.7c-.3-.1-.8-.8-1.1-.9a2.6,2.6,0,0,1-1.8-.7c-.1,0,0-.1-.1-.2a15.9,15.9,0,0,0-2,.7c.7.4.2,1-.5,1a4.3,4.3,0,0,0-.1-.5c.6-1.2-.6-1.1-1.2-.7s.1-.2.1-.4l-.9.5.7-1-.5-.3-.6-.2c-.1,0-.1.1-.2.2s-.8.3-.8.9,0,1.5.6,1.8v.3l1.1.2a7.1,7.1,0,0,0-2.1.4c.4.1,1.7.6.9,1s-.5-.8-1-.5a.7.7,0,0,1-.4.5c-.1,0-.1.2-.2.3l-.2-.3c-.1.1-.1.3-.2.4s-.1-.4-.1-.4a8.6,8.6,0,0,0-1.6.1c0,.2-.1.5-.1.6h.6l-3.1,2.2c-.1-.1-.1.2-.1.2s.4,0,.6,0h-.3c.1.3,0,.4-.1.7l-.6-.3v.3a3.3,3.3,0,0,1,1.2.5h-.7l.2.2c.9,0,1.9.5.9,1.4l.4.3c-.3,0-.4-.2-.7-.4a2.5,2.5,0,0,0,.4-.7,15.5,15.5,0,0,0-3.6,1.3,6.8,6.8,0,0,0,.9,1.7,18.6,18.6,0,0,1,2,1c.5.4,2.5,2.1,1.4,2.7a5.4,5.4,0,0,0,1.3.7h.6a.5.5,0,0,0-.5.3c-.7-.3-2.2-1-1.9-2a3,3,0,0,1-.4.8c0-.7-.5-1.4-.2-2.1-.4.8-3.4-2-4.1-.3.5-.1,1.1.2.4.6s-1.5-.7-.8.3,1.9.9,2.3,1-1-.1-1.4-.2l-1.4-.2c-.1-.6-.4-1.9-1.1-2.3s0,1-.1,1.8.3,1,.8,1.5.3,1.7.9,2.3,1.6,0,2.4.2,1,1.9,2,2c-1.3.7-1.6-2.6-3-1.7s.1,1,.2,1.5-.6,1.9-.7,2.8l-2.8-.4a1.5,1.5,0,0,1,1.6-.2c-.1,0-.1.1-.2.2a1,1,0,0,0,.7-.2l-.2-.2c.5-.3.4-.8.5-1.3s-.5-1.4-1.1-2.2-2.2-5.7-2.2-5.7a8.5,8.5,0,0,1-2.3-.3c0,1,.5,2.6-.5,3.2s1.4,2.6,1,2.7.5.1.8,0a1.4,1.4,0,0,0,1.2.9c0,.4-.1.7-.1,1h-.1c-.6-.7-2.1-1.6-3-1.4s-2.2-.6-2.9-.6-.1.3-.1.4.2.5.5.6a1,1,0,0,0,.4.5l-.4.3h-.4l.2.5c-.7.2-.7-.4-.8-.8s-1,.5-1.5.6-1,0-.9.7-.3.1-.5.2l-.7-.2c.1,0,.1-.2.3-.3s.1-.3-.3-.5l.6-.2c-.4-.1-.6.1-.9.2a.6.6,0,0,0,.1.4c-.2-.2-.2.1-.2-.3l-.4.3c.1.1.2.2.2.3l-.2.2a.8.8,0,0,0-.2-.4c-.6.3-1.2,1.1-1.8,1.1a.5.5,0,0,0,.3.3l-.9.2c.5,1.6-1.3.8-1.9.2a1.1,1.1,0,0,1,.9-.5c-.7-1.1-1.4-.7-2.3-1,.9.4.7,1.2.7,2s.5,1,.6,1.6-3.7.4-2.3,1.8a2.2,2.2,0,0,1-.3.5c-.7-.2-1.5-.9-2.3-.9s1.3.6,1.2,1.7a1.4,1.4,0,0,1-1.7-.5c-.5.2-.9-.8-1.1-1.3s.1-1.2-1.2-1.2h-.2c0-.1.2-.2.2-.2a1.6,1.6,0,0,1-.7-.7c1.5.3,2.9,1.5,4.6,1.2a1.6,1.6,0,0,0,1.5-1.3c0-1-1-1-1.5-1.8v.3l-.6-.3c-.5,0-1-.6-1.5-.9s-1.9-.6-2.4,0v-.3c-.4.1-.8,0-.9-.4h.6l-.7-.4c0,.2-.3.4-.3.6s-1.8-.7-2-.7a2.6,2.6,0,0,0,1.7-.5c-.3-.1-.7-.4-1-.4s-.4.2-1,.3l-.3-.2c.1-.2,0-.5.1-.7l-1,1.1c0-.2,0-.4-.2-.4s-.7.7-.7.9a4.3,4.3,0,0,1,.2-1.2,1.2,1.2,0,0,0-1.2,1.4c-.1-.3-1-.4-1.2-.4s.1.4.1.6l-.8.5c0-.1-.2-.2-.2-.3s-.6.8-.6.8-.8.1-1.1.4.2.6-.1.9-.8.4-1,.6.1,1.1-.3.8l.3.3c-.7-.7-1.5,1.6-1.7,2s-2.1,1.8-1.5,2.7l.9-.5c-.2.2-.7,1.6-1.2.6a.9.9,0,0,0-.7.5c0,.1.1.1.1.3l-.3-.2c0,.1.1.2.1.3a2.4,2.4,0,0,0-1.8.9.5.5,0,0,1,.4.2c-.2,0-1,.4-.8.6s1.1.1,1.6.1-1.5-.2-1.5.7h.2c0,.2.1.4.1.6l.7-.3c-.2.3,0,.1-.2.1a2.4,2.4,0,0,0-.6,1.1h.3l.3.6-.6.2c.7,0,1,.7,1.7.6a1.7,1.7,0,0,0,1.3-1c.1,0,.2,0,.2.1h.3a1.2,1.2,0,0,1,.3-.9c0,.4,1.6,3.9,1.8,3.6s-.2,1.2.2,1.3,1.2-.6,1.4-.8,1.1-.8.8-2h.2c-.1-.2,0-.5-.1-.7a1.5,1.5,0,0,1,.6-.5h.2l.3-.3-1.6-.3c.6-.1,1.9.2,1.8-.7s-.9-.8-1.1-1.2a2.8,2.8,0,0,1,.2-2c.5-.8,2-1.2,2.3-2s.1-1.6.6-2,2.2.2,2,1.2a6,6,0,0,0-1.4,1.1,5.2,5.2,0,0,0-1.2,1.8,16.2,16.2,0,0,0,.3,2c.4.6,1.4.2,1.6,1.1l1.9-.8a6.8,6.8,0,0,0,2-.2c-.1.1,0,.1-.1.2a4.7,4.7,0,0,1,.9.6c-.5.1-.9.6-1.1.6a4.9,4.9,0,0,1-1.7,0c-.6.1-2.1.3-1.3,1s-.1.2-.2.2.3.4.7.3-.1,1.4-.4,1.5-.4-1-1.3-.5,1,2.4,1,3-1.8-.1-2.6.3.1-.1.1-.2-.5-.3-1-.3a3.7,3.7,0,0,0-1.5.4c-.3.2-.9.8-1.4.8s-.7-.6-1.4-.5,0-.1.1-.2a1.3,1.3,0,0,1-1.4.4l.3-.2c-1.2.2-1.2-.5-1-1.1h0a.5.5,0,0,0,.4.3c.2.1.3-.1.3-.2s-.2-.2-.3-.2H134c.2-.3.4-.7.6-.8s-.6-.8-1.1-.6.1.2.1.4h-.3c0-.1.1-.1,0-.2a.9.9,0,0,0-.6.6s.1.4.2.4l-.3.2a2.6,2.6,0,0,1,.7,1.1h-.2a.7.7,0,0,1,.3.3c0,.1-.1,0-.1.2s.4.2.7.3h-.9c0,.1-.1.3,0,.5l-.3-.4c0,.1,0,.3-.1.3s-.2-.3-.7-.2.1.3.2.4h0c-.9-.9-2.1.4-2.4,1.2l.2.2c0,.1-.2.1-.2.1v.2h-.5c.1.1.2.1.2.2s-1.5,1-1.8,1.2-1.2.5-2.1.5.1.6.2.8-2.2.2-2.5.3h.2c0,.1.1.1.2.1s-.2.1-.2.2.1.1.2.2a1.7,1.7,0,0,1,1.4.5c.2-.1.3,0,.5,0h-.3c0,.7.9.6.7,1.3l.6.7-.4-.4c-.3.6.1,1.7-.8,2a12.9,12.9,0,0,0-4.8-.4c0,.1.1.2.1.3H120a6.8,6.8,0,0,1,.2,1.4c.1,1.1-.4,1.5-.7,2.6h.5l-.2.4h.4c-.1.4-.1.8-.2,1.2a3.4,3.4,0,0,1,2,.3c.5.2.2.5.9.4s.8-.4,1.2-.4,1,0,1.6-.3.8-1.1,1.5-1.5.1-1.5.7-2,.9-.3,1.4-1.2.2-1,1.2-1,.7.4,1,.4.6-.4,1-.7,2.2.1,3.2.9,4.6,2.4,3.7,4.4c.5,0,1.1-3.5,1.8-1.8.3-.8-1.2-1.2-1.8-1.4a.4.4,0,0,1,.1-.3,4.1,4.1,0,0,1-2.9-2.2c-.7-1.4.9-1.8,1-.6.8-.7,1.1.6,1.5.9s1.6.8,2.2,1.4.8,1.6,1.3,2.4,1.5,1,2.4,1.5a.9.9,0,0,0-1.2.3,5.2,5.2,0,0,0,1,1.1l.4-.2v-.5l.3-.2-.2-.2.6-.2a2.2,2.2,0,0,0-1.2-.9c.4-.1.1-.1.3-.3s.2,0,.2.1-.6-.9-.3-1.3a.9.9,0,0,0,.9.4v-.2h.2l-.3-.3a1.8,1.8,0,0,1,2.1,0,.4.4,0,0,1-.1.3,6.7,6.7,0,0,1,1.8-.7,3,3,0,0,1-.1-3.5c.5-.9,1.2-2.3,2.5-1.8l-.6.2c.5.2,1.1.2,1.5.6l-.4.5c.5,0,.5.2.5.6a3.1,3.1,0,0,0,2.3-.8,1.2,1.2,0,0,1-1.4-.3l.3.4a3,3,0,0,0-1.1-.6,2.1,2.1,0,0,1,1-.4h-.1c.6-.8,2.2-1,3.1-.9s-.5.5-.8.6l.3.4c-.3.4-.5.9-1.1,1,1.2.6,3.3,1,4,2.3s-2.8,1.5-3.8,1.1a6.7,6.7,0,0,0-4.2-.2c-.9.3-1.2,1-1.9,1.3s-1.3-.1-1.5.3.9,1.2,0,1.5.8,1.2,1.4,1.5,1.6,0,2.3,0,1.4.6,2.2.4,1-.6,2-.4-.1,2.2-.7,3.3-.9,1.7-2.1,1.3a.3.3,0,0,0-.1.2c-.2-.5-.7-.5-1.2-.4h.1a6,6,0,0,1-3.5,0c-1.2-.4-2.9-1.3-4.2-1.1s-.4,1.3-1.2,2.1-1.6-.2-2.1-.4a19.4,19.4,0,0,0-3.6-1.5,3.1,3.1,0,0,1-1.8-.7c-.5-.7.3-1.5-.3-2.1s.2-.6.2-.7-3,.4-3.5-.2-1.1.1-1.7.2a11.3,11.3,0,0,0-1.8.3c-1.1.2-2.9,1.8-3.8,1a1.4,1.4,0,0,1-1.9-.5c-.6.3-.6,1.3-1.3,1.8s-2.2.5-1.6,1.5-.3.8-.4,1.4a2.7,2.7,0,0,1-.9,1.2c-.7.6-2.1.4-2.1,1.6s-1.8,1.9-2.4,2.6a7.8,7.8,0,0,0-.9,2.1c.6-.1.9.4.5.9s.1,3.1-.8,3.6a1.5,1.5,0,0,1,.6,1l.4.3h-.6c.1.1,0,.3.1.5h.1v.2h.4c.1.3.6.3.9.3h-.4c0,.1.3.2.2.3s-.1.1-.1.1l.7.2q-.1.8.6.6c.3.4.7,1.7,1.2,1.9s2.3,1.7,3,2.1,2.9-.7,4.5-.1v-.2c1.3,1.1,3.7-.9,5.2-.8s1.3,1.1,2.3,1.6,1.4-.3,1.9-.3.6.4,1.1.5-.2,1.7-.2,2.6l.3.3h-.4c0,.2-.2.6-.1.8h-.3a12.6,12.6,0,0,0,2.1,2.6,8,8,0,0,1,.9,1.4,16,16,0,0,0,.5,2.1c.2,1.1.9,1.7.2,2.8s-2,2.6-1.5,4.2,1.1,1.5,1.4,2.2a12.6,12.6,0,0,1,1,3.3,5.8,5.8,0,0,0,1.2,2.8c.5.8,1.4,2.3,1.3,3.3s-.1-.1-.2,0,.3.9.3,1.5a.2.2,0,0,1,.2-.2h.1c1.4.8,3.2-.4,4.9,0a11.5,11.5,0,0,0,4.6-2.9c.7-.8,3.2-2.9,2.1-4,.5-.4,1.2-.4,1.7-.8a2.8,2.8,0,0,0,1-2h-.2c.1-.8-.5-1.3-.3-2.1a16.2,16.2,0,0,0,3.5-2.1c1.8-1,1.4-2,1.6-3.8,0-.3.2-.8.1-1.1s-.8-.7-.9-1.5-.1-1.1-.2-1.6a3.1,3.1,0,0,1-.2-.7c0-.3.2-.5.1-.8s.6-.7,1-1.1a16.6,16.6,0,0,0,1.4-1.3c1.1-1,2.2-1.8,3.3-2.7a13.2,13.2,0,0,0,4.6-7.1c-.5-.3-3.3.7-4,.8a4.1,4.1,0,0,1-1.9.2c-.7-.2-.6-.9-1.4-.9,1.6-.6-2-2.6-2.4-3.1l-.2.3a9.4,9.4,0,0,0-1-2.3l-.7-.4c-.6-.8-.4-1.7-.8-2.5s-1.2-.6-1.4-1.5.1,0,.2,0-1.1-1.5-1.5-2.4-1.4-1.5-1.4-2.5a9.1,9.1,0,0,0,1.7,1.7c0-.5,0-1.1.4-1.4a3.4,3.4,0,0,0-.1,1c.9.1,1.6,1.9,2.2,2.5l1,1.1c.6.6.3,1.2.6,1.8s4.1,3.1,3.3,4.7.5,1.5.8,2.2a27,27,0,0,0,4.8-1.6,5.6,5.6,0,0,1,1.2-.4,3.2,3.2,0,0,0,1.3-.7,3.7,3.7,0,0,1,2.3-.7c-.1-.1,0-.4-.1-.6s1.3-1.1,2.1-1a1.6,1.6,0,0,1,.5-1.4.3.3,0,0,1,.1.2,3.7,3.7,0,0,0,.9-1.6c-.6-.2-.6-.7-.9-.9s-.9,0-1.2-.1-.7-1.2-1.1-1.9-1.4,1.3-2.5,1.6-.9-.5-1.8-1.5-.2.5-.1.9c-1.1-1.1-1.5-2.8-2.9-3.7h.4c.1-1.9,2.7.9,3.1,1.2a3.3,3.3,0,0,0,2.7,1,3.8,3.8,0,0,1,1.5.1c.3.1.3.6.6.8a9.3,9.3,0,0,0,3.7.6c1.1.1,2.3-.5,3.4-.3s2.2,2.3,3.9,1.9a.9.9,0,0,1-1,.5c.4.7,1.3,1.7,2.2,1s.2-1.4,1-1.1c-1.2.6.9,5.3,1.3,6.1s2.5,6.6,4.7,3.7,0-2.8.7-4.2a12.1,12.1,0,0,1,2.4-2.1,9.3,9.3,0,0,1,1-1c.4-.3.9-.4,1.2-.7s.9-2.2,2-1.4,1.3-1,2.1-.5.6.9.9,1.3,1.1.5,1.2,1.1h-.3l.4.3c.1,0,0-.1,0-.2a3,3,0,0,1,.7,2.5l.2-.2a.5.5,0,0,0-.1.3,1.9,1.9,0,0,0,1.9-1.1c.6.6,1.8,2,1.4,2.9a3.4,3.4,0,0,1,.3,2.8h.3a2.5,2.5,0,0,0-.3,1.4c1.2.2,1.6,1.9,2,2.8a3.5,3.5,0,0,0,2,2.3c1.8.9.7-.9.3-2s-1.3-1.2-2.1-1.8a5.5,5.5,0,0,1-1.3-2.5c-.2-.9.6-1.8.2-2.7a1.3,1.3,0,0,1,.9-.1c-.1.2,0,.4-.1.6a7.5,7.5,0,0,1,1.6.4c.2.4.3.8.6,1s.1-.1.1-.2a.5.5,0,0,1,.2.4l1.3.4a2.7,2.7,0,0,0-.3,1.2c0-.5,2-1.2,2.3-1.4a2.2,2.2,0,0,0,1.1-2.7,3.2,3.2,0,0,0-1.3-2.2c-.5-.4-1.4-1.6-2-1.7h.1c-.5-.8.5-.9.5-1.8h.5v-.3a1.2,1.2,0,0,0,1-.5,1.4,1.4,0,0,0,1.2.3c-.2.1-.2.3-.3.4l.4.5h.4c-.1-.1-.1-.3-.3-.5s.2-.1.3-.3l.2.2c.3,0,2.6-.9,2-1.4l.6.3c0,.1-.2.1-.1.2s.8-.6,1.1-.4a6,6,0,0,0,2.1-1.4h-.3c.8-.2.6-.8,1.2-.9s.2-1.1.4-1.6,1.1-1.4.8-1.7-.2,0-.2-.1l.6-.2a.8.8,0,0,0-.1-.4l-.6.2.6-.4h-.4c-.3-.5-.8-.2-1.4-.3l.8-.2.5-.4a2.3,2.3,0,0,0-2.8-1c.7-.8,1.9.2,2.8.1s-.7-.7-1.1-1l-.9-1.4c-.5-.6-.7.2-.8-.9s.5-.5.4-1,.3-.1.4-.4.9-.4,1.4-.2v-.7a5.2,5.2,0,0,0-2.1-.2c-.1.1,0,.2-.1.3s-.2-.1-.2,0v.3l-.6.2c-.1-.4-.3-.4-.2-.8s-1.7-.6-1.2-1.4,1.5-2,2.7-2.1.5.3.7.5l-.5.7c0,.1,0,.4.1.5h.3c-.3.2-.2.3-.6.4s.2.2.2.3l2.2-1.5.4.4c-.1-.1-.1-.1,0-.2s.4.2.7.1-.2,1.5-.2,1.7l.3.3c.7-.6,1.4.1,1.6.7l-.5.2a1.9,1.9,0,0,1,.7,1.1c-.1-.2,0,1.7.3,1.3s.8-.8,1.3-.5a1.6,1.6,0,0,0,.3-2.3l-1-1.1a17.4,17.4,0,0,1-1.4-1.2c-.2-.7,1.1-1.4,1.2-2.1s-.1-.7.3-1.4.7-.5.8-1.2h.5c.6,2.2,2.6-2.2,2.8-2.8a8.3,8.3,0,0,0,.6-5.8c-.5-.4-.3-1.4-.4-1.9s-.8-1.6-.8-1.7-2-1.5-2.6-1.5a.8.8,0,0,1,0,.9c0-.2-.1-.3-.1-.4a.4.4,0,0,1-.7.4c.2-.3.1-.3.2-.5h-.3l-.3.4a2.6,2.6,0,0,1-.5-1.2,1.4,1.4,0,0,1-1.4.1c.1-.8,1.5-1.9,1-2.6s.8-2.5,1.3-3.7,3.2-1.5,4.6-2c-.4-1.6,2.3,0,2.6-.4s-.3.3-.5.5.6.2.8-.2h.3c.3-.7.9-.1,1.2-.5s-.7-.4-.7-.5.7-2.6,0-3.3a2,2,0,0,1,2.2-.9l.3-.4a2,2,0,0,1,.2,1.3l.5.3.3-.3c0,.2,0,.2-.1.3s.3.3.3.2.1-2.2,1-1.7-.9-1.1-.9-1.5a.8.8,0,0,1,1.5-.3c-1.2,0,.1,1.4,0,2l.3.2a.5.5,0,0,1-.2.4l.4.3c-1.6,1-.7,3.6-1.1,5.1s-.2,0-.3,0-.2.7-.7.5.2,1,.2,1.8a5.7,5.7,0,0,0,.8,2.5c.4.7,2,3.6,2.9,3.5a.2.2,0,0,0-.2.2,8.7,8.7,0,0,1,1.1,1.8c0-.7.5-1.3.6-2.1a1.2,1.2,0,0,1-.3-.9h-.2a2,2,0,0,1,1.1-.3c-.4-.4-.9-.9-.8-1.5s.8-.5.9-.9-.9-1.7-.7-2.7h-.3l.5-.4c-.1.1,0,.4,0,.6l.5.2c0-.5-.3-.7-.5-1.2l-.3.2c-.6-.4-.1-1.9-1.1-1.7s.1.3.1.4-.7-1.5-1.1-2.3.2.1.2,0a2,2,0,0,1-.4-1.6c.8-.3.6-.3,1.2-.9l.6.7a3.7,3.7,0,0,0,.2-.9,2.1,2.1,0,0,1,2.6,0c.5-.5.2-1.6.5-2.4l-.2-.2c.1.2,1.2-2,1.3-2.1s1.3-.5,2.2-.7-2.4-2.8-2.4-2.8-.1.1-.1.2-.3-.3-.3-.4h0c-.2-.2-2.6-1.1-2.1-.1l-.4-.9h.6l-.9-.2c.9-.4,1.9.8,2.5.1s-.1-1.8-.3-2.3-1.3-.6-1.2-.8l.3-.3c-.1-.1-.3,0-.3-.1s0-.4,0-.4l.4.2a.6.6,0,0,0-.1-.4c.6.4.4,1.1,1.2,1v.3c.6-.2.5-.7.5-1.1s0,.1,0,.2.5-.1.7-.3.7.4.8.8h.7v-.4c.4.2,1.1.5,1.2-.1s.2.2.4.1h-.1a.5.5,0,0,0-.3-.4h-.2ZM150.3,41.5a1.1,1.1,0,0,1-1.1.4c-.2-.1-1.2-.9-1.1-1.3a2.2,2.2,0,0,1,.4-.7C149.5,40.3,150.6,41.1,150.3,41.5Zm2.1-.9c0,.1,0,.1-.1.2a1.1,1.1,0,0,1-.8,0c-.2-.2.4-.1.4-.3s-.3-.4-.5-.5a.8.8,0,0,1-.4-.6c0-.2-.3-.5,0-.4l.3.2h.4c-.3-.2-.9-.3-.7-.5s.8.3,1,.8a4.3,4.3,0,0,0,.1.5l.2.4a.4.4,0,0,1,.1.3Zm17.9,24.3h-.4c-.6-.2-.8,0-1.5-.1a2.6,2.6,0,0,1-1.5-.4c-.5-.3-1-.1-1-.7s-.1-.2-.1-.4h.1a.3.3,0,0,1,.1-.2c.3-.6.6-.7.6-.9s-.6-.2-.9-.8-.1-.2-.2-.2-.1-.2-.1-.3h-.1a.1.1,0,0,0-.1-.1c0-.1-.1-.2-.2-.3h-.1l-.2-.3-.2-.3h-.1c0-.1-.1-.2-.1-.3a.1.1,0,0,1-.1-.1l-.2-.2h0c-.1-.1-.1-.2-.2-.2s-.7-.4-.4-1.1a2.6,2.6,0,0,1,1.3-1.4h1.2c.4-.1.7.2,1,.2s.3-.5.3-.5.7.9.8,1.4v.4h0c-.2-.1-.9-.7-1.1-.1s.2.8,0,.9-.7-.1-.5.2a2.4,2.4,0,0,0,.9,1.2c.5.2.7,0,.9.4a.1.1,0,0,1,.1.1h0v.2h0c.1,0,.1,0,.1.1h0v.2c.1.4.5.4.5.8s-.3.5.1.9.6.4.8.9a6.1,6.1,0,0,1,.3,1.3.4.4,0,0,1,.1.3h.1Zm12.4-39.2h0Zm20.8,50.5c0,.1-.2,0-.2-.1s-.1-.2-.1-.3h.1c.1,0,.1.1.2.2Zm10.9,8.1-.4-.2h-.2c-.2-.2-.1-.4,0-.3l.3.2h.3Zm31.3,46.4h.2C245.9,130.7,245.8,130.6,245.7,130.7Zm7.6-13.6a3.1,3.1,0,0,0,.2-.8v-.7a2.6,2.6,0,0,0-.3-.8l-.2-.3s-.9-.9-.9-1.2.1-.4-.1-.6l-.4-.4c-.2.1-.2.4-.3.2a2.9,2.9,0,0,1-.2-.8c-.2-.4-.1-.5-.4-.8s-.1-.4-.2-.5-.9-.2-1-.5-.8-.9-.7-1.2,0-.6-.2-.8-.2-.3-.3-.5a5.6,5.6,0,0,0-.1-1.8l-.7-.3c-.1.1-.4.4-.5-.1a6.5,6.5,0,0,0-.4-1.8c-.2-.6-.1-.6-.3-.6s-.4.4-.4.8-.4.2-.3.4.1,0,.1.2-.2.2-.2.4.1.1.1.2-.2,0-.2.4a1.3,1.3,0,0,0,.1.7c0,.1.1.1-.2.4a1.6,1.6,0,0,0-.3.8c-.1.1-.2.8-.5.9s-.3.3-.6.3-.4-.2-.8-.5l-.9-.3a8.8,8.8,0,0,0-1.5-1.2c-.4-.3-.5-.1-.5-.5s.3-.4.4-.7-.1-.2,0-.4,0-.2.3-.3.3,0,.3-.2-.1-.2.1-.3h0c-.1-.1,0-.2-.2-.1s-.1.3-.2.3h-.4l-.3-.2c-.2,0-.2.2-.4,0s0-.2-.2-.2h-1.9c-.1-.1-.4-.2-.2,0l.3.2c.2.1.2.1.2.2s0,.2-.2.2H237c-.2-.1-.2-.2-.4-.1s-.1.2-.4.4l-.4.3c-.1.1-.2.2-.1.2s.4.2.1.2h-.4l-.2.4c-.1.1-.2.2-.1.2h.2c0,.1-.1.1,0,.2h.2c-.1,0-.2.1-.3,0s0,.1,0,.2h.1s.1.1,0,.1-.1-.1-.2-.2h-.4c-.1-.2-.1-.2-.2-.2h-.4c-.1,0-.2,0-.1.1h-.2c-.1,0-.2.1-.2,0s.2-.1.2-.2v-.3c.1,0,.2,0,.1-.1h-.2a.1.1,0,0,0-.1-.1s-.2-.5-.3-.5h-.4v.2h-.1c-.1,0,0-.1-.1,0h-.2s.1-.1,0-.1h-.1c0,.1-.1.1-.1.2h-.3c0-.1-.1-.1-.1,0h-.3v.2h-.7a.3.3,0,0,0,.1.2h0c.1.1-.1.1-.1.2h.1c0,.1-.1.1-.1.2s0,.1.1.1h-.2l-.4-.2h0c-.1,0-.2-.2-.3-.1h0c.1,0,.1,0,0,.1s0,.2.1.2h.2v.2s.1.1,0,.1a.1.1,0,0,1-.1-.1v.5c-.1,0-.5-.8-.6-.8s0,.1-.3.2-.4,0-.4.3,0,.4.1.5a.1.1,0,0,1,0,.2l-.3.2h-.2l-.2.4c-.1.2-.4.7-.9.7H225c-.1.1,0,.1-.2.2h-1.5l-.7.4-.5.2s-.1,0-.2.2,0,.3-.1.3-.2.2-.3.1.1-.2.1-.4.1-.2,0-.1a1,1,0,0,0-.4.5c0,.2-.1.1-.1.3a.4.4,0,0,1,.1.3c-.1.2,0,.3,0,.3a1.1,1.1,0,0,0-.4.6c0,.4-.1.3,0,.4s-.1.3,0,.6.2.2.3.5.1.2,0,.4H221v-.2h-.1V115c-.1-.2,0-.3-.1-.3s-.1.3,0,.4.1.1.2.2v.2c0,.1-.1.2-.2.1l-.2-.2c-.1-.1-.1-.3-.1-.2a.2.2,0,0,0-.1.3l.3.2a.4.4,0,0,1,.1.3l.2.7c0,.5-.2.3,0,.6s.2.7.3.8v.4a6.8,6.8,0,0,0,.1,1.2c.1.6.2.6.1.8l-.2.8c-.2.4-.2.3-.4.5s-.2,0-.3.3-.3.3.4.8.8.6,1.3.6a1.7,1.7,0,0,0,1.2-.4l.9-.5a3.1,3.1,0,0,1,1.3-.3h1.2c.6,0,.7.1.9-.2s0-.4.3-.6l.9-.2c.4-.2.2-.2.6-.3s.3-.3,1-.2a1.6,1.6,0,0,0,1.2-.1l.9-.3h2.1c.1.2.1.3.3.4h.7l.5.2.4.4c.1.1.1.1,0,.2s-.2.2-.1.3l.4.2a1.3,1.3,0,0,1,.1.6c.1.2.2.2.1.3s.1.3,0,.4-.2,0-.1.1.3.3.4.2a.1.1,0,0,1,0-.2l.5-.4.5-.4.3-.2.3-.3c.1-.2.1-.1.3-.3s.1-.4.2-.4.1,0,.1.4-.1.3-.2.6-.3.4-.4.6-.2.3-.2.4.1.1-.1.3h-.3a.5.5,0,0,0-.3.3h.5c.2.1.2.2.3.1a2.1,2.1,0,0,0,.2-.6c0-.2,0-.3.1-.4s.4-.2.4.2a1.3,1.3,0,0,1-.1.7.6.6,0,0,1-.1.4h-.2c-.1,0,0,.1.2.1h.3c.2-.1.3-.2.3-.1s.2-.1.2,0l-.2.2v.2c.1.1.2.2.2.3a5.6,5.6,0,0,1,.1.7c-.1.1,0,.1-.1.2s-.2.1-.1.2v.3c0,.1.1.1.2.2h0a.6.6,0,0,0,.2.4l.2.2h.3l.2.2h.3l.2.2h.5l.2.3h.7v-.2h.5c-.1-.1-.1-.1,0-.2h.3l.3.2h-.1l-.2.2c0,.1,0,.2.1.2l.2-.2h.2c0,.1.1.1,0,.2h-.2l.2.2v.2h.1s0,.2.1.2h.1c0-.1.1-.3,0-.3s.1-.1,0-.1h-.1c0-.1.1-.2.2-.1h.4c.1-.1,0-.1.2-.2l.3-.2.3-.2h.4s.5-.2.7-.1h.6c.1-.1-.1-.1.1-.2l.3-.2a.4.4,0,0,0,.1-.3c0-.1-.1-.2,0-.3s.2-.2.2-.3.1-.4.1-.4v-.5c.1-.1.2,0,.2-.1s-.1-.2,0-.2.2,0,.3-.3.2-.1.3-.2.1-.1.1-.2.2-.3.3-.5a.8.8,0,0,0,.2-.4l.2-.3v-.3h.2l.3-.4.2-.2h.6V122l.2-.3.3-.3c.1-.2.2-.3.2-.5s-.1-.2-.1-.4a3.3,3.3,0,0,0,.3-.6l.2-.4a3.3,3.3,0,0,0,.6-1.2c0-.3.1-.1,0-.5S253.1,117.5,253.3,117.1ZM133.4,62c.2.4.2.4.1.6s-.2.6.1.6.2-.4.4-.3.2.6.4,0a3.7,3.7,0,0,0,.1-.8c-.1-.2-.2-.2-.1-.4s.1-.2,0-.3a.4.4,0,0,0-.5-.2c-.2.1-.1.4-.3.4S133.2,61.6,133.4,62Zm14.5.8h-.5c-.1,0-.1.2,0,.3s.2,0,.2-.1h.1c.1,0,0,.1,0,.2s.1.1.2.1S147.9,63,147.9,62.8ZM99.8,35a.1.1,0,0,0,0,.2h0Zm-7,5.4h-.1s-.2,0-.1.1.1,0,.1.1A.1.1,0,0,0,92.8,40.4Zm6.4-4.7c0-.1-.2-.2-.2-.3a.1.1,0,0,0-.1.1c0,.1.1.1.1.3s0,.2.1.2,0-.1,0-.2Zm13-6.6a9.9,9.9,0,0,0-3-.3l-.8-.4.7-.5h.2a2.8,2.8,0,0,1,.9-.7h0a7.6,7.6,0,0,1-.8-1.1,8.6,8.6,0,0,1,2.6,2.1c1.3-1.3-.1-2.5-1.6-3.3s.4-.3.6-.5-.7,0-1-.5a8.4,8.4,0,0,1,3.9-.6c-.3,0-.4-.6-.3-.8h.1l.3.2s.4.1.4-.1a.4.4,0,0,0,.1-.3h-.2a.1.1,0,0,1-.1-.1H114c.4-.4.3-.9,0-1.6h.7a.9.9,0,0,1,.1-1.2l-.6-.5c.5-.1,1.3-.7,1.8-.8s-.5-.6-.3-1.7.1,0,.1-.1h0a20.8,20.8,0,0,1,1.6-4.3,5.8,5.8,0,0,0-1.4-.3h.8l1.2-.6-1.5-.3c1.6.2,3-.8,4.2-1.7-.8-1.5-2.7-.8-3.6-.3a.8.8,0,0,0-.2-.5c-1.3,1-2.8,1.6-4.2,2.6,1.1-1.2,2.6-1.7,3.2-3.3a.7.7,0,0,0-.6-.4c-.6.7-4.3-.1-5.5,0,2.2-1.2,4.9.1,6.9-1.6-.9-.6-1.3-1.1-2.5-.9s.4-.2.2-.2h.6a.4.4,0,0,0,0-.5,13.8,13.8,0,0,0-5.7.4,9.9,9.9,0,0,1,2-1.3,3.4,3.4,0,0,0,3.5.2c-1.3-.8-4.6-2.1-6-.7h-.2c0,.1.1.1.1,0a3,3,0,0,0-.4,1c-.4-.3-.4-.2-.5,0s-1.3-.4-1.7-.7.3,1.9,1.1,2.7c-2.1-2-3.5-1.1-2.3,1.6l-.9-.3V6l-.2-.2c-.1,0-.2,0-.1.1h0A3.8,3.8,0,0,1,102.4,4c.5,1.4-1.5,1.5-2.2,1.3a3.7,3.7,0,0,1-.3-1.5,9.6,9.6,0,0,0-6,2.8.7.7,0,0,0-.3-.6,6.1,6.1,0,0,0-1.7,1.5,3,3,0,0,0,.5.7,20.7,20.7,0,0,0-6.2,2.9c0,.8,1.8,2.6,2.5,2.5a1.6,1.6,0,0,1-1.2-.1l.9.4a3.6,3.6,0,0,0-2.3.1l.5.2c0,.6,0,.4.5.7s-.5.2-.6.4l.9,1.1.3-.5c.1-.3,4.1,2.3,4.4,2.9a2.8,2.8,0,0,1,.4,1.1H92c-.1.1-.2.1-.1.2h.6c.1.9,0,2,0,3h-.2c0,.1-.1.1-.2.2v.2l.4-.3h.1a5.7,5.7,0,0,0,0,1.3,2.8,2.8,0,0,1-.9.7,5.1,5.1,0,0,0,1.4-.9c.4.8.6.7.6,1.6h.3c0,.1-.2,0-.3.2s.4,0,.5.2h-.5c.3.5.2.2.1.4s.3.2.4.4h-.3a16.7,16.7,0,0,0-2-.8,2.7,2.7,0,0,0,2.4,1.5,6.4,6.4,0,0,1-.2.7l-.5.3s.4.1.4.2.1-.1,0,.3-.3-.1-.6-.3-.2.6-.1.6h-.5c0-.1-.2-.1-.2-.1s-.2.1,0,.1h.1L92,30v.2h.5c.2,0,0-.2,0-.2s.5,0,.5-.1-.2.4-.3.4-.7.5-1.7.8l1.7-.4c.2.2.1.3.5.3l-.5.2.2.2a4.2,4.2,0,0,0-2.2.2,2.9,2.9,0,0,1,1.3.1H90.8c.1.1,0,.1-.1.1s.7.1.8.2-.3.2-.2.4h-.5c0,.1.2.1.3.1l-.6.3a8.4,8.4,0,0,0,2-.5l-1.8.9h.9c-.4.7.1.7.6.6s-.9.5-1.3.5.3.4.7.5-.6.1-.6.4v.4l.4-.2a.3.3,0,0,1-.1.2.1.1,0,0,0,.1-.1.1.1,0,0,0,.1-.1l.8-.3c-.1.1,0,.5,0,.5l-.4-.2.2.3a1.3,1.3,0,0,0-.9.2h.9a3.8,3.8,0,0,0-1,.3c.3.2.3,0,.1.3s.5-.1.6,0-.5.2-.5.4h.4c0,.1-.4,0-.4.2s.5.2.6.4-.2.5-.2.6.5.4.3,1.2l1.7,1h.1a7.4,7.4,0,0,0,2.1.9A31,31,0,0,1,97.7,38c0-.1-.3-.3-.3-.4s.3.2.5.1h-.1c-.2-.5.4-1,.8-1.1s.1-.8.2-1.4l2.3-.6c0,.1.2.1.2.1h.2c.1,0,0-.1-.1-.2a9.7,9.7,0,0,0,2.5-1.4c-.1,0,1.4-1.2,1.7-1.9h.1v.2h0c.2,1.1,3-.3,4.9-1.4ZM93.9,27.3h0Zm-.3,13h-.2C93.5,40.3,93.6,40.4,93.6,40.3Zm1.9,1.1h.2c0-.1-.1-.1-.3-.1h.1Zm-.9-.3a.1.1,0,0,0-.1-.1.3.3,0,0,0-.1.2C94.4,41.3,94.6,41.2,94.6,41.1Zm-2.9-5.5-.4.2h.4Zm3.6,6.1h.3a.1.1,0,0,0-.1-.1Zm1.3-1.3h-.1c-.1,0-.1.1,0,.1ZM92.1,29.6h0Zm-.3.3h.1C91.8,29.7,91.6,29.8,91.8,29.9Zm-.2-3.1c0-.1-.2-.1-.2-.1s-.1.2,0,.2Zm1,3.6h-.2c-.1,0-.1.1,0,.1S92.7,30.5,92.6,30.4Zm-1.8,2.1c.1,0,.1,0,.1-.1h-.1Zm.4-4.4c-.1.1,0,.1.1.2h.5c.1.1.1,0,.2,0h-.1c0,.1-.1,0-.3,0s-.2,0-.2.1h.3c.1,0,0,.1.1.1h.9l.3-.2c0-.2-.1-.3-.2-.3s-.2-.1-.2-.2l-.3-.4c-.1-.3-.1-.1-.3-.2h-.7c0,.1-.1.1,0,.3s.1.1.2.1h-.3c-.1,0,0,.1,0,.2s.1.1.2.1S91.3,28.1,91.2,28.1Zm2.4.2c.1-.2.1-.2.1-.3h-.3a.1.1,0,0,1,0,.2Zm-2.5,2.6h0c-.1.1-.3.2-.2.2A.2.2,0,0,0,91.1,30.9ZM91,32.3h-.2C90.9,32.3,91,32.4,91,32.3Zm-20.8,5c.1.1.2,0,.3-.2l.2-.5c.1-.1.2-.2.1-.3h-.2l-.4.2v.3c-.1.2-.3.2-.2.4Zm-2.4-.8.4-.2c.1.1.3.1.5-.1l.3-.3h.3q.2-.3,0-.3h-.9c-.1-.1-.4,0-.5.2s0,.2-.1.2-.3,0-.2.1.2.2.1.2S67.6,36.5,67.8,36.5Zm2.5-1.7c.1-.1.2-.1.3-.3s.2-.3,0-.4-.5.1-.6,0,0-.2,0-.3.2-.4,0-.6a.7.7,0,0,1-.4-.3c-.1,0-.2-.3-.2-.4s-.2-.2-.3-.2,0-.5-.3-.4-.3.2-.4.1-.1-.2-.1-.3.2-.1.2-.2-.1-.2-.1-.3.1-.2,0-.1-.4.1-1,1.1-.3,1.3-.6,1.4-.4.1-.4.3.5,0,.6.3-.1.3,0,.5.6-.1,1-.3.6-.2.6-.4a.5.5,0,0,1,.4-.3c.2.1.4.1.2.3s-.1,0,.2.1.3.2.2.3-.6.1-.1.2S70.2,34.9,70.3,34.8Zm7.3,20c.2-.1,0-.1,0-.1s-.5.2-.3.3,0,.2.4.4l.6.3c.2,0,.4,0,.5-.2s-.2-.1-.4-.2l-.6-.2c-.1,0-.1.2-.1,0S77.5,54.9,77.6,54.8ZM72.4,35.2c-.2-.1-.4-.2-.5-.1s.1,0,.2.3,0,.3.2.3.3-.1.3-.2v-.3ZM61.1,87.4H62A.9.9,0,0,0,61.1,87.4ZM79.8,52.6c-.2-.2-.6-.2-.8-.5l-.5-.2H78c-.2.1,0,.2.3.3s0,.2.4.4a1.5,1.5,0,0,0,.8.2C79.6,52.7,80,52.8,79.8,52.6ZM98.2,98.4c-1-2-5.8-2.9-7.7-2-1.2-1.6-3.3-2.2-4.3-.2.2-.9-.4-.6.7-1.8a15.5,15.5,0,0,0-2.3.5c4.9-3-5.8-7.5-8.3-7.5,0-.1.4-.2.4-.4-2.4-.8-5.3-1-7.5-2.2-.1.2.2.3.2.5s-1.1.8-1.6,1.6c.3-.7.1-1.4.5-2.2a15.7,15.7,0,0,0-2.6,1A8.3,8.3,0,0,1,62,87.3l.6.2a19.1,19.1,0,0,1,.7,3.6c-.6.8-4.9,4.1-2.4,5-1.2-.4-.9,3.4-.8,3.7a7.9,7.9,0,0,0,2.7,3.3c2.2,2,5.5,2.7,6.8,5.6s.1,6.7-.1,9.4-1.1,3.7-1,5.6,3.5,6.3,1.4,9.4c-.3-.1-.3-.5-.4-.7s-.3.5-.7,1.1.9,0,1.1.1.4,5,2.3,4.8l.3.4a3.1,3.1,0,0,1-.9.7,2,2,0,0,0,1.7,0l-.6.7c.3.6,2.5-1.2,2.8-1.6-.7-2.7.3-7.4,1.8-9.8-.4-.3-.6-1-.9-1.3,1.5-.2,1.6-.7,1.9-2.1,4.2.2,3.2-1.8,2.3-4.4,1.1,2.4,3.8-.9,5.3-2.6s2.8-4.7,5.6-6.7,2.1-4.3,3.9-8c.9-1.8,4.1-2.3,3-4.9C98.3,98.7,98.3,98.5,98.2,98.4Zm-22.7-9c-.1.2-.2.4-.3.2s.2-.3.1-.3-.2.2-.3.2,0,0,.1-.2a.6.6,0,0,0,.1-.4c0-.1-.2-.1-.2-.3s.1-.3.3-.3h.1c-.1.1-.1.1,0,.4S75.5,89.1,75.5,89.4Zm6.1.8v.2c-.1.1-.1-.1-.4,0s-.2,0-.1-.1.1-.1.2-.2,0-.2.1-.1h.3A.1.1,0,0,1,81.6,90.2ZM72.9,79.7h-.6c-.3-.1-.4,0-.4.2s.3.2.6.2H73c.1-.1.3-.1.2-.2S73.1,79.7,72.9,79.7Zm-6.6.4a4.3,4.3,0,0,0,4.1-.8,9.8,9.8,0,0,0-3.4-.7c-.7.1.3.2.4.4s0,.2,0,.3l.2.2c.1.1.3.2.1.2H66.4c-.3,0-.7,0-.5.1ZM90.7,32.3h0ZM80.2,56c.6-.2.9-.2.6-.3s-.5.1-.5-.1.1-.3.2-.5-.1-.2-.2-.2-.9.7-.8,1S79.7,56.1,80.2,56ZM58.9,77.3c0,.1.4.1.5,0s0-.3-.2-.3-.3,0-.2.2ZM90.7,33.9s-.1,0,0,.1h.1A.1.1,0,0,0,90.7,33.9Zm.1.2c-.1,0-.2,0-.1.1h.1ZM65.1,78.6a1.6,1.6,0,0,0,.9-.3,12.9,12.9,0,0,0-3-2,6.9,6.9,0,0,0-5.4.7,20.5,20.5,0,0,1,2.4-.5l-.2.2C61.8,76.5,63.2,78.9,65.1,78.6Zm-1.4,1.7h.6c.1,0,.2,0,.1-.1H64c-.1-.1,0-.2-.2-.2h-.9c-.2,0-.4.1-.3.2h.3c.1.1,0,.4.2.3s.3,0,.3.1h.3C63.7,80.3,63.6,80.3,63.7,80.3ZM93.6,26.7c-.1,0-.1.1,0,.2h0Zm22.5-11.1c.1,0,.1-.2.1-.2h-.1v.2S116,15.6,116.1,15.6Zm-.8,6.4h.1S115.1,21.9,115.3,22Zm-.8-.7c.1.2.1.3.2.3a.1.1,0,0,0,.1-.1v-.3C114.7,21.1,114.5,21.1,114.5,21.3Zm.1-2.7c0,.1.2.2.2.1a.1.1,0,0,0,0-.2C114.7,18.5,114.6,18.5,114.6,18.6Zm1.6-3.5h0Zm.6,1h-.1v.2h0c0,.1-.1.1-.1.2s.2.1.2,0-.1-.2,0-.3ZM86.7,13.2h.2c0-.1-.3-.3-.6-.2h.4Zm29.1,5v.2a.1.1,0,0,1,.1.1c0,.1-.1.2-.1.3l.2.2c0,.1,0,.1-.1.2v.3c.1,0,.1-.1.2-.3v-.3c-.1-.1-.1-.1-.1-.2s0-.1,0-.3Zm0,3.1h.6V21c0-.1,0-.2-.1-.1h-.2v-.2c-.1-.1-.1-.1,0-.1h.1a.1.1,0,0,0-.1-.1c-.1,0-.1.2-.1.1h-.3c-.1.1-.1.1-.1.3A.5.5,0,0,0,115.8,21.3Zm1.3-8.2a.7.7,0,0,0-.3.5c.1,0,.3.2.3-.1s.1-.2.1-.3ZM110,28.5h0C109.9,28.5,109.9,28.5,110,28.5Zm.3-.1h.2a.1.1,0,0,0,.1-.1c.1-.1.1-.1.1-.3s0-.2-.1-.2h-.1l-.5.2h-.7c0,.1-.1.1-.1.2h-.3c0,.1,0,.2.2.1h1.2ZM92.6,26c.1-.1.1-.1.1-.3h-.3V26C92.5,26.1,92.6,26.1,92.6,26Zm18.2,1.6a.3.3,0,0,0-.1-.2c-.1.1-.1.1,0,.2Zm1-3.3h1a.1.1,0,0,0-.1-.1h-.9c0-.1-.1-.1-.2-.1s0-.2.1-.1l.4.2h.2c0-.1-.3-.3-.3-.3h-.8c-.1,0-.2.1-.1.1l.3.2Zm1.4.3c0-.1-.2-.2-.2-.2h-1c-.2,0-.4,0-.3.1h.3l.5.2h.2c.1.1,0,.1.1.2h.4s-.1-.1,0-.1S113.3,24.6,113.2,24.6Zm.5-.4c-.2,0-.2.2-.1.2s.2-.1.2-.2Zm-.9,1.1h.4c0-.1-.1-.1-.3-.2h-.2l-.2-.2h-.8c-.1.3.2.6.2.6h.2l.3.2h.2l.3.2c.1,0,0-.1,0-.1h-.1c0-.1-.1-.1-.2-.1s0-.1.1-.2Zm-1.5-.8c0,.1-.1.1-.1.2s.2.1.2,0h0A.1.1,0,0,0,111.3,24.5Zm2.5,13.7a1.8,1.8,0,0,0,.9-.4,1.5,1.5,0,0,0,.9-.4l.7-.3c.2-.3.1-.3.2-.3s.3.4.4,0-.1-.3.3-.3.4-.1.3-.3-.3-.4-.1-.6.4-.1.2-.2h-.5c-.1-.1-.4,0-.2-.2s.3-.3.1-.3-.4,0-.3-.1.4-.3.2-.3-.3.2-.5.3,0-.3-.2-.3-.4-.2-.4.1-.1.3-.3.3,0-.4-.3-.2l-.2.3-.3-.3c-.2,0-.3,0-.3.2s.1.2.1.3a.3.3,0,0,1-.1.2.1.1,0,0,0,0-.2l-.2-.4c-.1-.2-.2-.1-.3,0s-.2.2-.2.3.1.1,0,.2-.2.1-.3-.1,0-.1-.1-.2.1-.3,0-.3-.3.1-.2.3.2.1.1.3-.2.4-.3.3-.1-.3-.1-.1-.1.3-.2.3-.1.2-.2.1-.1-.2-.1-.3v-.3c-.1-.1-.1-.1,0-.2s0-.2-.1-.3a.3.3,0,0,1-.1-.2h-.4c-.4,0-.4.2-.7.4s-.7.3-.5.4h.9c.3,0,.4.2.4.3s-.4.1-.2.2.5.2-.1.3h-.8c-.1.1-.4.3-.1.3s.9-.1.9,0-.3.3.1.4l.6.2s0,.1-.2.1l-.7.3c-.2-.1-.4-.2-.4,0s.1.5.2.4h.7c.3,0,.5-.1.6,0l.6.3C113.3,37.9,113.5,38.2,113.8,38.2ZM92.1,22.6h0Zm.1-.2h0Zm.1-.2h0Zm1.2,4.2c-.1,0-.2,0-.1.1a.1.1,0,0,0,.2,0Zm-1.2-4.5h0c0-.1-.1-.1,0-.1h-.1V22C92.3,22,92.3,22,92.3,21.9Zm.9,3.3H93c-.1.1-.1.1-.1.2s.1.2.1.1.2-.1.2-.2Zm-.2.7c0,.1.1.1.2,0h-.1C93,25.7,92.9,25.8,93,25.9Zm-1.2-1.7h.3c.1,0,.1,0,0-.1s-.2,0-.2.1S91.8,24.1,91.8,24.2Zm.2-2Zm0-2.9h0Zm-.2,3.8h.1c.1,0,.1,0,.1-.1h-.2Zm-.2,1.5h.1C91.7,24.5,91.6,24.5,91.6,24.6Zm.7-3.6c-.1,0-.2,0-.1.1h.2c0-.1.1-.1,0-.1A.1.1,0,0,0,92.3,21Zm-.3.5h.2a.1.1,0,0,1,.1-.1H92Zm.5,1.2h-.1c-.1,0-.2,0-.1.1S92.5,22.8,92.5,22.7Zm-.3-2.6h0Z" transform="translate(-5 0)"/></g></svg>