<svg xmlns="http://www.w3.org/2000/svg" viewBox="0 0 369.7 134.1"><defs><style>.Graphic-Style-7,.cls-1,.cls-13{stroke:#000;}.Graphic-Style-7,.cls-1,.cls-10,.cls-12,.cls-13,.cls-14,.cls-15,.cls-16,.cls-3,.cls-4,.cls-5,.cls-6,.cls-7,.cls-8,.cls-9{stroke-miterlimit:10;}.Graphic-Style-7{opacity:0.12;}.cls-1,.cls-2{fill:#fff;}.cls-10,.cls-12,.cls-13,.cls-14,.cls-15,.cls-16,.cls-3,.cls-4,.cls-5,.cls-6,.cls-7,.cls-8,.cls-9{fill:none;}.cls-12,.cls-14,.cls-15,.cls-16,.cls-3,.cls-4,.cls-5,.cls-6,.cls-7,.cls-8,.cls-9{stroke:#bdbdbd;}.cls-4{stroke-dasharray:3.43 3.43;}.cls-5{stroke-dasharray:3.56 3.56;}.cls-6{stroke-dasharray:3.96 3.96;}.cls-7{stroke-dasharray:3.86 3.86;}.cls-8{stroke-dasharray:3.6;}.cls-9{stroke-dasharray:3.67 3.67;}.cls-10{stroke:#006837;}.cls-11{fill:#006837;}.cls-12{stroke-dasharray:3.48 3.48;}.cls-14{stroke-dasharray:3.34 3.34;}.cls-15{stroke-dasharray:3.93 3.93;}.cls-16{stroke-dasharray:3.72 3.72;}</style></defs><title>star-3</title><g id="Layer_2" data-name="Layer 2"><g id="Layer_1-2" data-name="Layer 1"><polygon class="Graphic-Style-7" points="364.6 107.8 353.1 87 364.4 67.7 342.4 67.8 330.2 46.4 317.3 67.9 295.9 68 306.1 86.1 292.3 107.8 318.4 107.8 329.4 127.4 340.9 107.8 341.7 107.8 364.6 107.8"/><polygon class="Graphic-Style-7" points="210.1 113.5 233.8 113.5 222.4 92.5 233.6 73.4 198.6 13.1 165.1 73.6 175.3 91.8 162.5 113.5 187.6 113.5 198.6 133.1 210.1 113.5"/><polygon class="Graphic-Style-7" points="112.7 101.7 98.5 79.9 106.6 66.2 72.1 7.8 3.7 124.7 72.1 124.7 85.7 101.7 112.7 101.7"/><polygon class="cls-1" points="69.3 1 0.9 117.8 69.3 117.8 103.7 59.4 69.3 1"/><polygon class="cls-1" points="104.3 59.5 80.8 59.5 57.6 97.8 69.5 117.8 104.3 59.5"/><line class="cls-2" x1="69.3" y1="4" x2="69.3" y2="79.6"/><line class="cls-3" x1="69.3" y1="4" x2="69.3" y2="5.8"/><line class="cls-4" x1="69.3" y1="9.2" x2="69.3" y2="76.1"/><line class="cls-3" x1="69.3" y1="77.8" x2="69.3" y2="79.6"/><line class="cls-2" x1="69.3" y1="79.6" x2="0.9" y2="117.8"/><line class="cls-3" x1="69.3" y1="79.6" x2="67.7" y2="80.5"/><line class="cls-5" x1="64.6" y1="82.2" x2="4" y2="116.1"/><line class="cls-3" x1="2.4" y1="116.9" x2="0.9" y2="117.8"/><line class="cls-2" x1="24.2" y1="82.1" x2="42.5" y2="116.8"/><line class="cls-3" x1="24.2" y1="82.1" x2="25" y2="83.7"/><line class="cls-6" x1="26.9" y1="87.2" x2="40.8" y2="113.5"/><line class="cls-3" x1="41.7" y1="115.2" x2="42.5" y2="116.8"/><line class="cls-2" x1="50.3" y1="35.3" x2="88.7" y2="35.3"/><line class="cls-3" x1="50.3" y1="35.3" x2="52.1" y2="35.3"/><line class="cls-7" x1="56" y1="35.3" x2="84.9" y2="35.3"/><line class="cls-3" x1="86.9" y1="35.3" x2="88.7" y2="35.3"/><line class="cls-8" x1="57.6" y1="97.8" x2="35.8" y2="61.5"/><line class="cls-8" x1="80.7" y1="59.4" x2="35.8" y2="60.5"/><polygon class="cls-1" points="57.6 97.8 105.7 97.8 80.8 59.5 57.6 97.8"/><line class="cls-2" x1="102.5" y1="96.1" x2="38" y2="61.3"/><line class="cls-3" x1="102.5" y1="96.1" x2="100.9" y2="95.2"/><line class="cls-9" x1="97.7" y1="93.5" x2="41.2" y2="63"/><line class="cls-3" x1="39.6" y1="62.1" x2="38" y2="61.3"/><path class="cls-10" d="M63.7,64.3a27.9,27.9,0,0,1,10,2.9c5.7,2.8,11,10.4,14.1,15.6"/><polygon class="cls-11" points="61.5 68.2 61.7 68 64.3 64.9 55.7 65.7 52.8 69 61.5 68.2"/><path class="cls-11" d="M52.2,62l3.4,2.7,8.6-.8a14,14,0,0,1-3.3-2.7Z"/><polygon class="cls-11" points="83.1 82.2 87.1 81.7 89.6 78.5 90.7 88 83.1 82.2"/><polygon class="cls-1" points="198.5 4.1 164.9 64.7 198.5 124.1 233.5 64.5 198.5 4.1"/><line class="cls-2" x1="198.5" y1="7.1" x2="198.5" y2="104.6"/><line class="cls-3" x1="198.5" y1="7.1" x2="198.5" y2="8.9"/><line class="cls-12" x1="198.5" y1="12.4" x2="198.5" y2="101"/><line class="cls-3" x1="198.5" y1="102.8" x2="198.5" y2="104.6"/><line class="cls-13" x1="164.9" y1="64.7" x2="233.5" y2="64.7"/><line class="cls-8" x1="178.3" y1="41.1" x2="218" y2="41.1"/><polygon class="cls-1" points="187.8 104.6 233.7 104.6 211.7 64.1 187.8 104.6"/><polygon class="cls-1" points="162.3 104.6 208.2 104.6 186.3 64.1 162.3 104.6"/><line class="cls-2" x1="197.3" y1="84.4" x2="162.3" y2="104.6"/><line class="cls-3" x1="197.3" y1="84.4" x2="195.7" y2="85.3"/><line class="cls-14" x1="192.8" y1="86.9" x2="165.3" y2="102.8"/><line class="cls-3" x1="163.9" y1="103.7" x2="162.3" y2="104.6"/><line class="cls-8" x1="231.7" y1="103.6" x2="199.8" y2="83.4"/><polygon class="cls-1" points="298.1 62.6 331.6 122.1 366.6 62.4 298.1 62.6"/><polygon class="cls-1" points="320.9 102.5 366.8 102.5 344.7 62.6 320.9 102.5"/><polygon class="cls-1" points="294.5 102.5 343.9 102.5 320.2 62.1 294.5 102.5"/><line class="cls-2" x1="332.4" y1="81.3" x2="298.5" y2="100.5"/><line class="cls-3" x1="332.4" y1="81.3" x2="330.8" y2="82.2"/><line class="cls-15" x1="327.4" y1="84.1" x2="301.7" y2="98.7"/><line class="cls-3" x1="300" y1="99.6" x2="298.5" y2="100.5"/><line class="cls-8" x1="363.8" y1="100.5" x2="332.4" y2="81.3"/><polygon class="cls-1" points="309.4 79.5 354.3 79.5 332.3 41.1 309.4 79.5"/><line class="cls-2" x1="332.2" y1="42.5" x2="332.8" y2="102"/><line class="cls-3" x1="332.2" y1="42.5" x2="332.3" y2="44.3"/><line class="cls-16" x1="332.3" y1="48.1" x2="332.8" y2="98.3"/><line class="cls-3" x1="332.8" y1="100.2" x2="332.8" y2="102"/><path class="cls-10" d="M193,53.3a28.7,28.7,0,0,1,1.9,10.3c0,6.4-4.5,14.5-7.7,19.6"/><polygon class="cls-11" points="188.5 53.1 188.7 53.2 192.7 54.1 188.2 46.7 183.9 45.7 188.5 53.1"/><path class="cls-11" d="M189.9,42l-.9,4.2,4.5,7.4a31.5,31.5,0,0,1,.9-4.2Z"/><polygon class="cls-11" points="185.6 78.7 187.8 82.1 191.7 82.8 183.8 88.1 185.6 78.7"/><path class="cls-10" d="M347.1,68.1c5.1-.7,11.2-.7,16.4,1.5s6.9,4.9,5.2,7.3-3.2,1.7-5.6,1.8"/><polygon class="cls-11" points="345.5 72.3 345.7 72 347.8 68.6 339.4 70.6 337.1 74.3 345.5 72.3"/><path class="cls-11" d="M335.5,67.4l3.6,2.2,8.5-2a20,20,0,0,1-3.7-2.2Z"/><polygon class="cls-11" points="365.9 74.9 364.3 78.6 365.9 82.3 357.1 78.7 365.9 74.9"/></g></g></svg>