<svg xmlns="http://www.w3.org/2000/svg" viewBox="0 0 389.3 145.4"><defs><style>.Graphic-Style-7,.cls-1,.cls-4,.cls-5{stroke:#000;}.Graphic-Style-7,.cls-1,.cls-10,.cls-11,.cls-12,.cls-13,.cls-15,.cls-16,.cls-17,.cls-18,.cls-19,.cls-4,.cls-5,.cls-6,.cls-7,.cls-8,.cls-9{stroke-miterlimit:10;}.Graphic-Style-7{opacity:0.12;}.cls-1,.cls-3{fill:#fff;}.cls-2{opacity:0.28;}.cls-10,.cls-11,.cls-12,.cls-13,.cls-15,.cls-16,.cls-17,.cls-18,.cls-19,.cls-4,.cls-5,.cls-6,.cls-7,.cls-8,.cls-9{fill:none;}.cls-5{stroke-dasharray:3.54 3.54;}.cls-10,.cls-11,.cls-12,.cls-15,.cls-16,.cls-17,.cls-18,.cls-19,.cls-6,.cls-7,.cls-8,.cls-9{stroke:#bdbdbd;}.cls-7{stroke-dasharray:3.71 3.71;}.cls-8{stroke-dasharray:3.62 3.62;}.cls-9{stroke-dasharray:3.55 3.55;}.cls-10{stroke-dasharray:3.23 3.23;}.cls-11{stroke-dasharray:3.63 3.63;}.cls-12{stroke-dasharray:3.43 3.43;}.cls-13{stroke:#006837;}.cls-14{fill:#006837;}.cls-15{stroke-dasharray:3.41 3.41;}.cls-16{stroke-dasharray:3.43 3.43;}.cls-17{stroke-dasharray:4.07 4.07;}.cls-18{stroke-dasharray:3.97 3.97;}.cls-19{stroke-dasharray:3.6;}.cls-20{opacity:0.16;}</style></defs><title>star-2</title><g id="Layer_2" data-name="Layer 2"><g id="Layer_1-2" data-name="Layer 1"><polygon class="Graphic-Style-7" points="198.8 5.5 142.3 103.7 255.3 103.7 198.8 5.5"/><polygon class="Graphic-Style-7" points="54.1 13.4 2.2 103.7 24.6 90.3 48.6 103.7 108.6 103.7 54.1 13.4"/><polygon class="Graphic-Style-7" points="348.2 8.1 292.3 103.7 348.2 103.7 376.5 55.9 348.2 8.1"/><polygon class="cls-1" points="53.3 8.9 1.4 99.2 23.8 85.8 47.8 99.2 107.8 99.2 53.3 8.9"/><g class="cls-2"><line class="cls-3" x1="1.4" y1="99.2" x2="107.8" y2="99.2"/><line class="cls-4" x1="1.4" y1="99.2" x2="3.2" y2="99.2"/><line class="cls-5" x1="6.7" y1="99.2" x2="104.2" y2="99.2"/><line class="cls-4" x1="106" y1="99.2" x2="107.8" y2="99.2"/></g><line class="cls-1" x1="12.9" y1="79.1" x2="47.8" y2="99.2"/><polygon class="cls-1" points="198.9 1 142.4 99.2 255.4 99.2 198.9 1"/><line class="cls-3" x1="255.4" y1="99.2" x2="171.2" y2="52.1"/><line class="cls-6" x1="255.4" y1="99.2" x2="253.8" y2="98.3"/><line class="cls-7" x1="250.6" y1="96.5" x2="174.4" y2="53.9"/><line class="cls-6" x1="172.8" y1="53" x2="171.2" y2="52.1"/><line class="cls-3" x1="198.9" y1="3.5" x2="198.9" y2="97.6"/><line class="cls-6" x1="198.9" y1="3.5" x2="198.9" y2="5.3"/><line class="cls-8" x1="198.9" y1="8.9" x2="198.9" y2="94"/><line class="cls-6" x1="198.9" y1="95.8" x2="198.9" y2="97.6"/><line class="cls-3" x1="225.8" y1="52.9" x2="144.9" y2="97.6"/><line class="cls-6" x1="225.8" y1="52.9" x2="224.3" y2="53.8"/><line class="cls-9" x1="221.1" y1="55.5" x2="148" y2="95.8"/><line class="cls-6" x1="146.5" y1="96.7" x2="144.9" y2="97.6"/><line class="cls-3" x1="236" y1="68.9" x2="220.5" y2="97.7"/><line class="cls-6" x1="236" y1="68.9" x2="235.1" y2="70.5"/><line class="cls-10" x1="233.6" y1="73.3" x2="222.1" y2="94.7"/><line class="cls-6" x1="221.4" y1="96.1" x2="220.5" y2="97.7"/><line class="cls-3" x1="162.3" y1="67" x2="180.5" y2="98.4"/><line class="cls-6" x1="162.3" y1="67" x2="163.2" y2="68.5"/><line class="cls-11" x1="165.1" y1="71.7" x2="178.7" y2="95.3"/><line class="cls-6" x1="179.6" y1="96.8" x2="180.5" y2="98.4"/><line class="cls-3" x1="178" y1="38.3" x2="219.4" y2="38.1"/><line class="cls-6" x1="178" y1="38.3" x2="179.8" y2="38.3"/><line class="cls-12" x1="183.2" y1="38.3" x2="215.9" y2="38.1"/><line class="cls-6" x1="217.6" y1="38.1" x2="219.4" y2="38.1"/><path class="cls-13" d="M229.5,94.5a19.5,19.5,0,0,1-6.2-2c-4.4-2.1-8.5-7.5-11.2-11.7"/><polygon class="cls-14" points="231.7 90.7 231.6 90.9 228.9 93.9 237.5 93.4 240.4 90.2 231.7 90.7"/><path class="cls-14" d="M240.9,97.1l-3.3-2.7-8.7.5a21.6,21.6,0,0,1,3.3,2.7Z"/><polygon class="cls-14" points="216.8 81.3 212.8 81.8 210.5 85.1 209.1 75.7 216.8 81.3"/><path class="cls-13" d="M162.4,77.5a23.3,23.3,0,0,1,5-4.1c4.2-2.5,11-3,15.9-3"/><polygon class="cls-14" points="164.4 81.5 164.3 81.3 163.3 77.3 159 84.9 160.1 89.1 164.4 81.5"/><path class="cls-14" d="M154,85.7l4.1-1.3,4.3-7.5a27.7,27.7,0,0,1-4.1,1.2Z"/><polygon class="cls-14" points="180.4 74.1 182.1 70.4 180.6 66.7 189.3 70.7 180.4 74.1"/><path class="cls-13" d="M208.2,32.1a19.3,19.3,0,0,1,.9,6.5c0,4.9-3.1,10.9-5.7,15.1"/><polygon class="cls-14" points="203.8 31.8 204 31.8 208 33 203.8 25.4 199.6 24.2 203.8 31.8"/><path class="cls-14" d="M205.7,20.8l-1.1,4.1,4.2,7.6a19.1,19.1,0,0,1,1.1-4.1Z"/><polygon class="cls-14" points="201.8 49.3 204 52.6 208 53.4 200.1 58.7 201.8 49.3"/><polygon class="cls-1" points="346.1 3.6 290.1 99.2 346.1 99.2 374.3 51.4 346.1 3.6"/><line class="cls-3" x1="346.1" y1="3.6" x2="346.1" y2="51.5"/><line class="cls-6" x1="346.1" y1="3.6" x2="346.1" y2="5.4"/><line class="cls-15" x1="346.1" y1="8.8" x2="346.1" y2="48"/><line class="cls-6" x1="346.1" y1="49.7" x2="346.1" y2="51.5"/><line class="cls-3" x1="332.2" y1="75.7" x2="290.1" y2="99.2"/><line class="cls-6" x1="332.2" y1="75.7" x2="330.7" y2="76.6"/><line class="cls-16" x1="327.7" y1="78.2" x2="293.2" y2="97.5"/><line class="cls-6" x1="291.7" y1="98.3" x2="290.1" y2="99.2"/><line class="cls-3" x1="306.8" y1="70.8" x2="321.8" y2="99.2"/><line class="cls-6" x1="306.8" y1="70.8" x2="307.6" y2="72.4"/><line class="cls-17" x1="309.5" y1="76" x2="320" y2="95.8"/><line class="cls-6" x1="320.9" y1="97.6" x2="321.8" y2="99.2"/><line class="cls-3" x1="330.6" y1="31.7" x2="362" y2="31.7"/><line class="cls-6" x1="330.6" y1="31.7" x2="332.4" y2="31.7"/><line class="cls-18" x1="336.4" y1="31.7" x2="358.2" y2="31.7"/><line class="cls-6" x1="360.2" y1="31.7" x2="362" y2="31.7"/><polygon class="Graphic-Style-7" points="374.8 51.8 317.9 51.8 346.4 99.5 374.8 51.8"/><path class="cls-1" d="M373.8,52.5c-8,1.6-16.9,1.9-28.4,1.8a149.5,149.5,0,0,1-27.5-2.8,107.6,107.6,0,0,0,11.3,25.9,107.3,107.3,0,0,0,17.1,21.8C355.8,83.3,364.3,68.4,373.8,52.5Z"/><line class="cls-19" x1="336.3" y1="85" x2="355.3" y2="53.8"/><path class="cls-19" d="M318.9,52.5a106.6,106.6,0,0,0,23.2,15.8,100.2,100.2,0,0,0,18.4,7.2"/><path class="cls-13" d="M344.2,58.5c6.9,1,15.7,3.1,22.7,7.2,9,5.2,15.5,12.7,19.1,17.6"/><polygon class="cls-14" points="341.4 61.8 341.6 61.7 344.7 59.1 336.1 58.3 332.7 61 341.4 61.8"/><path class="cls-14" d="M333.4,54l2.8,3.3,8.6.8a22.1,22.1,0,0,1-2.8-3.2Z"/><polygon class="cls-14" points="381.3 83.1 385.2 82.4 387.4 79 389.3 88.3 381.3 83.1"/><g class="cls-20"><path d="M205,139.9c0,.1-.1.2-.3.2h-.3l-.3.2h-3.4l-.2.3v.2h2.4l.2.2h.2v.4h.1v.5c-.1,0-.1.1-.1.2h-.1c-.1.2-.2.4-.3.4h-.2v.2h-.2a.5.5,0,0,1-.4.2l-.2.2h-.3l-.3.2h-2.5l-.2-.2h-.3v-.2h-.2v-.4h0v-.2h.3c.2,0,.3.1.3.4v.2h1c.1,0,.2,0,.2.1h1.1c0-.1,0-.1.1-.1h1l.3-.2h.1v-.3h.2v-.2h.1v-.2h-3.8v-.2h0v-.3h.5l.3-.4h0v-.2l-.2-.2.2-.3h5Z"/><path d="M206,144.5h-1.1v-.3l.2-.2.2-.2h.7v.2Z"/></g><g class="cls-20"><path d="M59.3,142.3c0,.2-.1.4-.3.4v.2H57.2v.2h0v.2h-.1v.2h0l.2.4h-.7v-.4h-.1v-.2h0v-.4h-.1v-.2h0v-.2H53.3v-.3c.1-.1.1-.3.3-.3h2.1v-.2h.4v-.2h.2c0-.3.1-.4.3-.4h.3v.5h0v.2h-.1c0,.1-.1.3-.4.5s0,.2-.2.3h0v.2l-.3.2h1.2v-.2h0v-.2H57v-.4h.1v-.2h0V140h0c.1-.2.2-.3.4-.3l.4.4v.3h-.1v.2h-.1v.2h-.2v.6l-.2.5h.5l.5-.2h.3l.3-.2h.1Z"/><path d="M61.3,144.5h-.9a.1.1,0,0,0-.1-.1h-.2v-.3c0-.1.1-.2.3-.2l.2-.2h.7v.2Z"/></g><g class="cls-20"><path d="M354.4,142.7v.4h-.1v.2h-1.4l-.3.2h-.6l-.7.2h-1.8l-.3-.4v-.5h0v-.6h0v-.2h0v-.2h.1l.2-.3v-.2h.1V141h.2a.1.1,0,0,0,.1-.1h.5l.7-.4h.3c0-.1.1-.2.3-.2h.6l.4.5-.2.2c0,.1-.1.2-.4.3H351c-.1,0-.1.1-.2.3h-.2c0,.1,0,.1-.1.2h-.2v.2h-.1l-.2.2v.4h.1v.3h0v-.3h.1l.5-.4h0l.4-.2h2.7l.3.2c.2,0,.3.2.4.3h.1v.2Zm-.7,0h-1.5l-.2.2h-.5a.2.2,0,0,0-.2.2h-.2l-.4.3h-.3v.2h0v.2h2.9a.1.1,0,0,1,.1-.1h.3c0-.1,0-.2.1-.2h.1Z"/><path d="M356.6,144.5h-.8a.1.1,0,0,1-.1-.1h-.2v-.3c0-.1,0-.2.2-.2l.2-.2h.7v.2Z"/></g></g></g></svg>