<svg xmlns="http://www.w3.org/2000/svg" viewBox="0 0 403.5 132.6"><defs><style>.Graphic-Style-7,.cls-1,.cls-11,.cls-12{stroke:#000;}.Graphic-Style-7,.cls-1,.cls-11,.cls-12,.cls-3,.cls-4,.cls-5,.cls-6,.cls-8,.cls-9{stroke-miterlimit:10;}.Graphic-Style-7{opacity:0.12;}.cls-1,.cls-2{fill:#fff;}.cls-11,.cls-12,.cls-3,.cls-4,.cls-5,.cls-6,.cls-8,.cls-9{fill:none;}.cls-3,.cls-4,.cls-5,.cls-8,.cls-9{stroke:#bdbdbd;}.cls-4{stroke-dasharray:3.53 3.53;}.cls-5{stroke-dasharray:3.54 3.54;}.cls-6{stroke:#006837;}.cls-7{fill:#006837;}.cls-8{stroke-dasharray:3.48 3.48;}.cls-9{stroke-dasharray:3.86 3.86;}.cls-10{opacity:0.28;}.cls-12{stroke-dasharray:3.73 3.73;}.cls-13{fill:#b92200;}.cls-14{opacity:0.16;}</style></defs><title>star-1</title><g id="Layer_2" data-name="Layer 2"><g id="Layer_1-2" data-name="Layer 1"><polygon class="Graphic-Style-7" points="313.5 85.5 358.5 8.6 402.9 85.5 390.4 106 333.6 73.1 313.5 85.5"/><polygon class="Graphic-Style-7" points="203.9 8 270.8 8 270.8 85 160.2 85 203.9 8"/><rect class="Graphic-Style-7" x="6.2" y="6.9" width="111.3" height="76.95"/><rect class="cls-1" x="3.1" y="3.5" width="111.3" height="76.95"/><polygon class="cls-1" points="200.9 3.8 267.8 3.8 267.8 80.8 157.3 80.8 200.9 3.8"/><path class="Graphic-Style-7" d="M222.7,42.3,158.3,80.8,200.9,4c1.8,3.6,8.5,11.6,12.5,20.2S221,38.5,222.7,42.3Z"/><line class="cls-2" x1="45.9" y1="4.6" x2="4.8" y2="78.8"/><line class="cls-3" x1="45.9" y1="4.6" x2="45" y2="6.1"/><line class="cls-4" x1="43.3" y1="9.2" x2="6.5" y2="75.6"/><line class="cls-3" x1="5.7" y1="77.2" x2="4.8" y2="78.8"/><line class="cls-2" x1="5.6" y1="42" x2="111.8" y2="42"/><line class="cls-3" x1="5.6" y1="42" x2="7.4" y2="42"/><line class="cls-5" x1="11" y1="42" x2="108.3" y2="42"/><line class="cls-3" x1="110" y1="42" x2="111.8" y2="42"/><path class="cls-6" d="M18.1,9.5c6.3,1.1,14.2,3.1,20.8,6.8,9.5,5.5,17.9,14,22.5,19.3"/><polygon class="cls-7" points="15.2 12.8 15.4 12.7 18.6 10.1 10 9.2 6.6 11.8 15.2 12.8"/><path class="cls-7" d="M7.4,4.9l2.7,3.3,8.6.9A16.9,16.9,0,0,1,16,5.9Z"/><polygon class="cls-7" points="56.7 35.9 60.5 34.7 62.3 31.1 65.2 40.2 56.7 35.9"/><line class="cls-2" x1="203.5" y1="5.5" x2="242.7" y2="79.4"/><line class="cls-3" x1="203.5" y1="5.5" x2="204.3" y2="7.1"/><line class="cls-8" x1="205.9" y1="10.2" x2="241.1" y2="76.2"/><line class="cls-3" x1="241.9" y1="77.8" x2="242.7" y2="79.4"/><line class="cls-2" x1="267.8" y1="42.3" x2="221.7" y2="42.3"/><line class="cls-3" x1="267.8" y1="42.3" x2="266" y2="42.3"/><line class="cls-9" x1="262.2" y1="42.3" x2="225.5" y2="42.3"/><line class="cls-3" x1="223.5" y1="42.3" x2="221.7" y2="42.3"/><polygon class="cls-1" points="311.9 80.4 356.8 3.5 401.2 80.4 388.7 100.9 331.9 68 311.9 80.4"/><path class="cls-6" d="M376.3,91.9c-5.8,5.3-14,10.6-20.7,7.4s-9.7-10.5-10.7-15.7"/><polygon class="cls-7" points="375.4 87.6 375.4 87.8 375.5 91.9 381.5 85.6 381.5 81.3 375.4 87.6"/><path class="cls-7" d="M386.5,86.1l-4.3.2-6,6.3a15.4,15.4,0,0,1,4.3-.2Z"/><polygon class="cls-7" points="349 86 345.2 84.8 341.7 86.8 344.3 77.7 349 86"/><line class="cls-1" x1="322.2" y1="62.1" x2="387.4" y2="100.2"/><g class="cls-10"><line class="cls-2" x1="401.2" y1="80.4" x2="311.9" y2="80.4"/><line class="cls-11" x1="401.2" y1="80.4" x2="399.4" y2="80.4"/><line class="cls-12" x1="395.7" y1="80.4" x2="315.5" y2="80.4"/><line class="cls-11" x1="313.7" y1="80.4" x2="311.9" y2="80.4"/></g><polygon class="cls-13" points="0.9 0.9 3 2.8 4.4 0 6.3 1.4 4 3.5 6.3 4.6 5.4 5.9 3.2 4.4 1.6 6.8 0.2 5.8 2.4 3.6 0 2.2 0.9 0.9"/><polygon class="cls-13" points="65.3 39.5 67.4 41.3 68.8 38.5 70.6 39.9 68.4 42 70.7 43.2 69.7 44.5 67.6 42.9 66 45.4 64.5 44.3 66.7 42.1 64.4 40.7 65.3 39.5"/><path class="cls-1" d="M221.7,42.4,157.3,80.9,200.9,4a70.1,70.1,0,0,0,9.2,24.2A69.6,69.6,0,0,0,221.7,42.4Z"/><path class="cls-6" d="M194.1,49.7c1.8-6.2,6.2-16,16-21.7a43.1,43.1,0,0,1,20.6-5.4"/><polygon class="cls-7" points="198.4 47.8 194.4 48.5 191.2 46.2 192.8 55.6 198.4 47.8"/><polygon class="cls-7" points="232.9 26.4 232.7 26.2 230.1 23.1 238.7 23.8 241.6 27.1 232.9 26.4"/><path class="cls-7" d="M242.1,20.2l-3.3,2.6-8.6-.7a25,25,0,0,0,3.3-2.6Z"/><g class="cls-14"><path d="M219,132v.3h-.1l-.4.2h-1.9l-.3-.2h-3.1l-.2-.2h0v-.2h0a.1.1,0,0,0,.1-.1v-.2h-.1l.5-.3h2.5l.2-.2h.2c0-.1,0-.2.1-.2h.4V130h.3l.2-.2h.2v-.2h.1v-.2l-.2-.2-.4-.3h-2.4v.2h-.2v.2H214a.1.1,0,0,1-.1.1v.2h-.4l-.2-.2v-.2h0l.2-.3.2-.2h.2l.5-.2H217a.1.1,0,0,0,.1.1h.1v.2h.3l.4.4v.2h.2v.2h0v.2h0v.3h-.2v.2l-.2.3v.2h-.1l-.4.2h-.1l-.2.2H219Zm-4.4-.4h0Z"/><path d="M221,132.1h-1v-.2h-.1v-.3q0-.2.3-.3h.7v.2h.1Z"/></g><g class="cls-14"><path d="M57.5,132.1c0,.1,0,.2-.2.3H55.7c-.1,0-.1-.1-.1-.2l-.2.2H53.3l-.4-.2h-.1v-.2h-.1l.2-.2h1.7v-.2h0v-.2h0v-.3a.3.3,0,0,1,.1-.2v-.2h-.1V130h0v-.4h.1v-.2h0V129H54l-.2.2h-.3l-.4.2-.2-.2h-.3v-.2q.2-.3.3-.3h.5l.5-.2h1.1a.4.4,0,0,1,.1-.3h.8c.2.2.3.3.3.4v.2l-.3.2h-.1v.3h-.1c0,.1-.1.2-.1.3s0,.3-.1.3h.1v.2h0v.2h.1v.2h0c0,.1.1.1.1.2h-.1v.2h.1v.2h0v.2h1v.2h1.1Z"/><path d="M59.6,132.1h-.9c0-.1-.1-.1-.1-.2h-.1v-.3l.2-.3h.8v.2h.1Z"/></g><g class="cls-14"><path d="M356,131.2v.4h-.5l-.5.2h-.3l-.5.2h-3.3c-.1,0-.2-.2-.2-.5s.1-.4.3-.4h.6q.3.1.3.3v.2h.3l.3.2h1.6l.2-.2h.5l.3-.2h.1a.5.5,0,0,0,.4-.2h-3.2v-.5h.2l.4-.2h1.3l.4-.2h.4l-.6-.2H352v.2h-.1c-.1,0-.2,0-.3.2H351c-.1-.1-.1-.1-.1-.2h0v-.2h4.1l.2.2h.2v.5h0v.2c-.1.2-.2.3-.4.3h.3l.2.2h.1l.2.2v.4h0Z"/><path d="M358.3,132.1h-.9c-.1-.1-.1-.1-.1-.2h-.1v-.3l.2-.3h.8v.2h.1Z"/></g></g></g></svg>