<svg width="344" height="395" viewBox="0 0 344 395" version="1.1" xmlns="http://www.w3.org/2000/svg" xmlns:xlink="http://www.w3.org/1999/xlink"><title>versioning-logo</title><desc>Created using Figma</desc><use xlink:href="#a" fill="#3979E0" fill-opacity=".1"/><use xlink:href="#b" transform="translate(200.05 145.3)" fill="#3979E0" fill-opacity=".1"/><use xlink:href="#c" transform="translate(108.59 145.3)" fill="#3979E0" fill-opacity=".1"/><defs><path id="a" d="M19.6 229.893c-16.69 6.514-21.89 32.901 2.238 42.643-11.13 18.959-5.512 30.603 19.027 36.966-8.467 6.933-1.736 33.761 22.08 33.761-3.221 12.474 6.266 33.731 32.784 23.845-2.627 18.783 22.217 31.547 38.16 11.477 2.527 14.872 25.848 24.37 40.23 7.306 13.088 12.84 32.107 9.834 38.411-7.306 19.179 21.912 42.614 6.18 42.614-11.477 8.329 7.9 35.913.396 30.036-26.189 18.211 2.801 27.881-13.722 24.47-31.417 6.548 0 26.686-4.232 19.384-36.966 17.055-4.239 22.659-33.16 0-44.325a147.375 147.375 0 0 0 3.83-33.442c0-14.194-2.018-27.932-5.786-40.969 18.211-38.085 14.443-65.918-32.572-83.803 7.858-15.138 0-42.377-30.005-37.521-9.357-43.26-51.971-23.776-57.955-12.824-7.781-23.335-47.974-28.921-61.458 0-11.199-11.858-49.359-11.904-53.676 25.55-48.75-19.827-58.663 15.967-52.13 31.561-62.296 20.9-35.869 67.242-19.286 81.291a147.237 147.237 0 0 0-4.622 36.715c0 12.086 1.462 23.844 4.226 35.124zm194.894 36.798c-4.02 18.707-20.572 32.726-40.375 32.726-19.811 0-36.363-14.019-40.383-32.726h80.758zm89.956-64.037c0 6.415-.457 12.725-1.348 18.897-3.814-4.505-9.502-7.367-15.851-7.367-10.484 0-19.164 7.801-20.603 17.939-3.792-3.95-9.106-6.409-14.999-6.409-6.258 0-11.87 2.778-15.684 7.17-3.815-4.392-9.433-7.17-15.692-7.17-6.426 0-12.166 2.923-15.989 7.527-3.814-4.604-9.562-7.527-15.988-7.527-5.779 0-11.01 2.367-14.786 6.195-3.769-3.828-8.999-6.195-14.778-6.195-6.426 0-12.174 2.923-15.996 7.527-3.815-4.604-9.563-7.527-15.989-7.527-6.258 0-11.87 2.778-15.684 7.17-3.822-4.392-9.433-7.17-15.692-7.17-5.885 0-11.207 2.459-14.991 6.409-1.447-10.138-10.119-17.939-20.61-17.939-5.794 0-11.033 2.382-14.801 6.218a132.44 132.44 0 0 1-1.188-17.748c0-26.075 7.575-50.376 20.633-70.796 18.387-1.325 42.058-6.675 66.962-15.785 32.457-11.881 59.219-27.308 73.053-40.9.343.076.678.16 1.013.243 5.345 7.68 14.207 12.703 24.234 12.703a29.58 29.58 0 0 0 6.51-.724c40.657 22.186 68.264 65.484 68.264 115.259z"/><path id="b" d="M20.176 40.337c11.143 0 20.176-9.03 20.176-20.168C40.352 9.029 31.32 0 20.176 0 9.033 0 0 9.03 0 20.169c0 11.139 9.033 20.168 20.176 20.168z"/><path id="c" d="M20.176 40.337c11.143 0 20.176-9.03 20.176-20.168C40.352 9.029 31.32 0 20.176 0 9.033 0 0 9.03 0 20.169c0 11.139 9.033 20.168 20.176 20.168z"/></defs></svg>